#define catverse_1_9_width 144
#define catverse_1_9_height 128
static unsigned char catverse_1_9_bits[] = {
  0x00, 0x00, 0x00, 0x00, 0x00, 0x00, 0x00, 0x00, 0x00, 0x00, 0x00, 0x00, 
  0x00, 0x00, 0x00, 0x00, 0x00, 0x00, 0x00, 0x00, 0x00, 0x00, 0x00, 0x00, 
  0x00, 0x00, 0x00, 0x00, 0x00, 0x00, 0x00, 0x00, 0x00, 0x00, 0x00, 0x00, 
  0x00, 0x00, 0x00, 0x00, 0x00, 0x00, 0x00, 0x00, 0x00, 0x00, 0x00, 0x00, 
  0x00, 0x00, 0x00, 0x00, 0x00, 0x00, 0x00, 0x00, 0x00, 0x00, 0x00, 0x00, 
  0x00, 0x00, 0x00, 0x00, 0x00, 0x00, 0x00, 0x00, 0x00, 0x00, 0x00, 0x00, 
  0x00, 0x00, 0x00, 0x00, 0x00, 0x00, 0x00, 0x00, 0x00, 0x00, 0x00, 0x00, 
  0x00, 0x00, 0x00, 0x00, 0x00, 0x00, 0x00, 0x00, 0x00, 0x00, 0x00, 0x00, 
  0x00, 0x00, 0x00, 0x00, 0x00, 0x00, 0x00, 0x00, 0x00, 0x00, 0x00, 0x00, 
  0x00, 0x00, 0x00, 0x00, 0x00, 0x00, 0x00, 0x00, 0x00, 0x00, 0x00, 0x00, 
  0x00, 0x00, 0x00, 0x00, 0x00, 0x00, 0x00, 0x00, 0x00, 0x00, 0x00, 0x00, 
  0x00, 0x00, 0x00, 0x00, 0x00, 0x00, 0x00, 0x00, 0x00, 0x00, 0x00, 0x00, 
  0x00, 0x00, 0x00, 0x00, 0x00, 0x00, 0x00, 0x00, 0x00, 0x00, 0x00, 0x00, 
  0x00, 0x00, 0x00, 0x00, 0x00, 0x00, 0x00, 0x00, 0x00, 0x00, 0x00, 0x00, 
  0x00, 0x00, 0x00, 0x00, 0x00, 0x00, 0x00, 0x00, 0x00, 0x00, 0x00, 0x00, 
  0x00, 0x00, 0x00, 0x00, 0x00, 0x00, 0x00, 0x00, 0xE4, 0xE7, 0x07, 0x00, 
  0x00, 0x00, 0x00, 0x00, 0x00, 0x00, 0x00, 0x00, 0x00, 0x00, 0x00, 0x00, 
  0x00, 0xC0, 0xE7, 0xE3, 0xFF, 0x00, 0x00, 0x00, 0x00, 0x00, 0x00, 0x00, 
  0x00, 0x00, 0x00, 0x00, 0x00, 0x00, 0x00, 0xC0, 0xC7, 0xC1, 0xFF, 0x01, 
  0x00, 0x00, 0x00, 0x00, 0x00, 0x00, 0x00, 0x00, 0x00, 0x00, 0x00, 0x00, 
  0x00, 0x47, 0xC7, 0xC1, 0xE1, 0x01, 0x00, 0x00, 0x00, 0x00, 0x00, 0x00, 
  0x00, 0x00, 0x00, 0x00, 0x00, 0x00, 0xC0, 0x0F, 0xC7, 0xC1, 0xC1, 0xE0, 
  0x00, 0x00, 0x00, 0x00, 0x00, 0x00, 0x00, 0x00, 0x00, 0x00, 0x00, 0x00, 
  0xF0, 0x0F, 0xC6, 0xC1, 0x1F, 0xE0, 0x01, 0x00, 0x00, 0x00, 0x00, 0x00, 
  0x00, 0x00, 0x00, 0x00, 0x00, 0x00, 0xFC, 0x06, 0xCE, 0xC1, 0x1F, 0xC0, 
  0x07, 0x00, 0x00, 0x00, 0x00, 0x00, 0x00, 0x00, 0x00, 0x00, 0x00, 0x00, 
  0xFE, 0x00, 0xFC, 0xE0, 0x0F, 0xE0, 0x1F, 0x00, 0x00, 0x00, 0x00, 0x00, 
  0x00, 0x00, 0x00, 0x00, 0x00, 0x00, 0xEE, 0x01, 0xFC, 0xC0, 0x0C, 0xF0, 
  0x1C, 0x00, 0x00, 0x00, 0x00, 0x00, 0x00, 0x00, 0x00, 0x00, 0x00, 0x00, 
  0xCC, 0x01, 0xF8, 0xE0, 0x05, 0x70, 0x38, 0x00, 0x00, 0x00, 0x00, 0x00, 
  0x00, 0x00, 0x00, 0x00, 0x00, 0x00, 0xC4, 0x03, 0xF8, 0xE0, 0x20, 0xF8, 
  0x38, 0x00, 0x00, 0x00, 0x00, 0x00, 0x00, 0x00, 0x00, 0x00, 0x00, 0x00, 
  0x80, 0x03, 0x70, 0xF0, 0x70, 0xF8, 0x3D, 0x00, 0x00, 0x00, 0x00, 0x00, 
  0x00, 0x00, 0x00, 0x00, 0x00, 0x02, 0x80, 0x03, 0xF0, 0xF8, 0x77, 0xBC, 
  0x1F, 0x00, 0x00, 0x00, 0x00, 0x00, 0x00, 0x00, 0x00, 0x00, 0x00, 0x07, 
  0x00, 0x07, 0x20, 0xA0, 0x7F, 0x1D, 0x0F, 0x00, 0x00, 0x00, 0x00, 0x00, 
  0x00, 0x00, 0x00, 0x00, 0x80, 0x07, 0x00, 0x1F, 0x00, 0x00, 0xB8, 0x1F, 
  0x07, 0x3E, 0x00, 0x00, 0x00, 0x00, 0x00, 0x00, 0x00, 0x00, 0xC0, 0x0F, 
  0x00, 0x3E, 0x00, 0x00, 0x00, 0x0F, 0x07, 0xFE, 0x00, 0x00, 0x00, 0x00, 
  0x00, 0x00, 0x00, 0x00, 0xF0, 0x3F, 0x00, 0x0F, 0x00, 0x00, 0x00, 0x9C, 
  0x07, 0xEE, 0x00, 0x00, 0x00, 0x00, 0x00, 0x00, 0x00, 0x00, 0xE0, 0xFF, 
  0x00, 0x03, 0x00, 0x00, 0x00, 0x88, 0x03, 0x87, 0x01, 0x00, 0x00, 0x00, 
  0x00, 0x00, 0x00, 0x00, 0x80, 0xF3, 0x01, 0x00, 0x00, 0x00, 0x00, 0xC0, 
  0x43, 0x8E, 0x03, 0x00, 0x00, 0x00, 0x00, 0x00, 0x00, 0x00, 0x80, 0xFB, 
  0x0F, 0x00, 0x00, 0x00, 0x00, 0x80, 0x77, 0xCE, 0x03, 0x00, 0x00, 0x00, 
  0x00, 0x00, 0x00, 0x00, 0x80, 0xBF, 0x0F, 0x00, 0x00, 0x00, 0x00, 0x00, 
  0x7A, 0xDE, 0x01, 0x00, 0x00, 0x00, 0x00, 0x00, 0x00, 0x00, 0x00, 0x1F, 
  0x07, 0x00, 0x00, 0x00, 0x00, 0x00, 0x78, 0x9C, 0x00, 0x00, 0x00, 0x00, 
  0x00, 0x00, 0x00, 0x00, 0x00, 0x87, 0x03, 0x00, 0x00, 0x00, 0x00, 0x00, 
  0x70, 0x1C, 0x00, 0x00, 0x00, 0x00, 0x00, 0x00, 0x00, 0x40, 0x00, 0x07, 
  0x00, 0x00, 0x00, 0x00, 0x00, 0x00, 0x60, 0x3C, 0x30, 0x00, 0x00, 0x00, 
  0x00, 0x00, 0x00, 0xE0, 0x01, 0x1E, 0x00, 0x00, 0x00, 0x00, 0x00, 0x00, 
  0xE0, 0x1D, 0x30, 0x00, 0x00, 0x00, 0x00, 0x00, 0x00, 0xE0, 0x03, 0x3E, 
  0x00, 0x00, 0x00, 0x00, 0x00, 0x00, 0xC0, 0x1F, 0x7C, 0x00, 0x00, 0x00, 
  0x00, 0x00, 0x00, 0xF0, 0x03, 0x1E, 0x00, 0x00, 0x00, 0x00, 0x00, 0x00, 
  0x80, 0x0F, 0x7E, 0x00, 0x00, 0x00, 0x00, 0x00, 0x00, 0xB8, 0x00, 0x0E, 
  0x00, 0x00, 0x00, 0x00, 0x00, 0x00, 0x00, 0x80, 0xFF, 0x00, 0x00, 0x00, 
  0x00, 0x00, 0x00, 0x1C, 0x40, 0x06, 0x00, 0x00, 0x00, 0x00, 0x00, 0x00, 
  0x00, 0xE8, 0xC7, 0x00, 0x00, 0x00, 0x00, 0x00, 0x00, 0x1C, 0xE0, 0x00, 
  0x00, 0x00, 0x00, 0x00, 0x00, 0x00, 0x00, 0xFC, 0xCF, 0x01, 0x00, 0x00, 
  0x00, 0x00, 0x00, 0x1C, 0xE0, 0x00, 0x00, 0x00, 0x00, 0x00, 0x00, 0x00, 
  0x00, 0x78, 0x9E, 0x03, 0x00, 0x00, 0x00, 0x00, 0x00, 0x0E, 0xE0, 0x00, 
  0x0C, 0x00, 0x00, 0x00, 0x00, 0xC0, 0x00, 0x38, 0xBE, 0x03, 0x00, 0x00, 
  0x00, 0x00, 0x00, 0x0E, 0xC0, 0x00, 0x7E, 0x00, 0x00, 0x00, 0x00, 0xF8, 
  0x01, 0x38, 0xCF, 0x03, 0x00, 0x00, 0x00, 0x00, 0x00, 0x0C, 0xE0, 0x00, 
  0xFE, 0x01, 0x00, 0x00, 0x00, 0xFE, 0x01, 0x30, 0x80, 0x01, 0x00, 0x00, 
  0x00, 0x00, 0x00, 0x1C, 0xE0, 0x00, 0xFE, 0x03, 0x00, 0x00, 0x00, 0xFF, 
  0x03, 0x60, 0x00, 0x00, 0x00, 0x00, 0x00, 0x00, 0x00, 0x3C, 0x70, 0x00, 
  0xFF, 0x0F, 0x00, 0x00, 0xC0, 0xFF, 0x03, 0xE0, 0x03, 0x00, 0x00, 0x00, 
  0x00, 0x00, 0x00, 0xF8, 0x7E, 0x00, 0xFF, 0x0F, 0x00, 0x00, 0xE0, 0xFF, 
  0x03, 0xE0, 0x03, 0x00, 0x00, 0x00, 0x00, 0x00, 0x00, 0xF0, 0x3F, 0x00, 
  0xFF, 0x3F, 0x00, 0x00, 0xE0, 0xFF, 0x03, 0xC0, 0x03, 0x00, 0x00, 0x00, 
  0x00, 0x00, 0x00, 0xE0, 0x1F, 0x00, 0xFF, 0x3F, 0x00, 0x00, 0xF0, 0xFF, 
  0x03, 0x80, 0x00, 0x00, 0x00, 0x00, 0x00, 0x00, 0x00, 0x00, 0x02, 0x00, 
  0xFF, 0x7F, 0x00, 0x00, 0xF8, 0xFF, 0x03, 0x00, 0x00, 0x00, 0x00, 0x00, 
  0x00, 0x00, 0x00, 0x00, 0x00, 0x00, 0xFF, 0xFF, 0x00, 0x00, 0xFC, 0xFF, 
  0x03, 0x00, 0x00, 0x00, 0x00, 0x00, 0x00, 0x00, 0x00, 0x00, 0x00, 0x00, 
  0xFF, 0xFF, 0xFB, 0xFF, 0xFE, 0xFF, 0x03, 0x00, 0x00, 0x00, 0x00, 0x00, 
  0x00, 0x00, 0x00, 0x00, 0x00, 0x00, 0xFF, 0xFF, 0xFF, 0xFF, 0xFF, 0xFF, 
  0x03, 0x00, 0x00, 0x00, 0x00, 0x00, 0x00, 0x00, 0x00, 0x00, 0x00, 0x00, 
  0xFF, 0xFF, 0xFF, 0xFF, 0xFF, 0xFF, 0x03, 0x00, 0x00, 0x00, 0x00, 0x00, 
  0x00, 0x00, 0x00, 0x00, 0x00, 0x00, 0xFF, 0xFF, 0xFF, 0xFF, 0xFF, 0xFF, 
  0x03, 0x00, 0x00, 0x00, 0x00, 0x00, 0x00, 0x00, 0x00, 0x00, 0x00, 0x00, 
  0xFF, 0xFF, 0xFF, 0xFF, 0xFF, 0xFF, 0x03, 0x00, 0x00, 0x00, 0x00, 0x00, 
  0x00, 0x00, 0x00, 0x00, 0x00, 0x00, 0xFF, 0xFF, 0xFF, 0xFF, 0xFF, 0xFF, 
  0x03, 0x00, 0x00, 0x00, 0x00, 0x00, 0x00, 0x00, 0x00, 0x00, 0x00, 0x00, 
  0xFF, 0xFF, 0xFF, 0xFF, 0xFF, 0xFF, 0x03, 0x00, 0x00, 0x00, 0x00, 0x00, 
  0x00, 0x00, 0x00, 0x00, 0x00, 0x00, 0xFF, 0xFF, 0xFF, 0xFF, 0xFF, 0xFF, 
  0x03, 0x00, 0x00, 0x00, 0x00, 0x00, 0x00, 0x00, 0x00, 0x00, 0x00, 0x00, 
  0xFF, 0xFF, 0xFF, 0xFF, 0xFF, 0xFF, 0x03, 0x00, 0x00, 0x00, 0x00, 0x00, 
  0x00, 0x00, 0x00, 0x00, 0x00, 0x00, 0xFE, 0xFF, 0xFF, 0xFF, 0xFF, 0xFF, 
  0x01, 0x00, 0x00, 0x00, 0x00, 0x00, 0x00, 0x00, 0x00, 0x00, 0x00, 0x00, 
  0xFF, 0xFF, 0xFF, 0xFF, 0xFF, 0xFF, 0x03, 0x00, 0x00, 0x00, 0x00, 0x00, 
  0x00, 0x00, 0x00, 0x00, 0x00, 0x00, 0xFF, 0xFF, 0xFF, 0xFF, 0xFF, 0xFF, 
  0x03, 0x00, 0x00, 0x00, 0x00, 0x00, 0x00, 0x00, 0x00, 0x00, 0x00, 0x00, 
  0xFF, 0xFF, 0xFF, 0xFF, 0xFF, 0xFF, 0x03, 0x00, 0x00, 0x00, 0x00, 0x00, 
  0x00, 0x00, 0x00, 0x00, 0x00, 0x80, 0xFF, 0xFF, 0xFF, 0xFF, 0xFF, 0xFF, 
  0x07, 0x00, 0x00, 0x00, 0x00, 0x00, 0x00, 0x00, 0x00, 0x00, 0x00, 0x80, 
  0xFF, 0xFF, 0xFF, 0xFF, 0xFF, 0xFF, 0x07, 0x00, 0x00, 0x00, 0x00, 0x00, 
  0x00, 0x00, 0x00, 0x00, 0x00, 0x80, 0xFF, 0xFF, 0xFF, 0xFF, 0xFF, 0xFF, 
  0x07, 0x00, 0x00, 0x00, 0x00, 0x00, 0x00, 0x00, 0x60, 0x00, 0x00, 0x80, 
  0xFF, 0xFF, 0xFF, 0xFF, 0xFF, 0xFF, 0x0F, 0x00, 0xE6, 0x01, 0x00, 0x00, 
  0x00, 0x00, 0xD8, 0x00, 0x00, 0xC0, 0xFF, 0xFF, 0xFF, 0xFF, 0xFF, 0xFF, 
  0x0F, 0x80, 0x61, 0x00, 0x00, 0x00, 0x00, 0x00, 0x44, 0x00, 0x00, 0xC0, 
  0xFF, 0xFF, 0xFF, 0xFF, 0xFF, 0xFF, 0x0F, 0x00, 0x60, 0x80, 0x01, 0x00, 
  0x00, 0x00, 0x44, 0x00, 0xE0, 0xFF, 0xFF, 0xFF, 0xFF, 0xFF, 0xFF, 0xFF, 
  0xEF, 0x5F, 0xB0, 0x40, 0x01, 0x00, 0x00, 0x00, 0x22, 0x00, 0xE0, 0xFF, 
  0xFF, 0xFF, 0xFF, 0xFF, 0xFF, 0xFF, 0xFF, 0x5F, 0x98, 0xB0, 0x00, 0x00, 
  0x00, 0x00, 0x31, 0x00, 0xE0, 0xFF, 0xFF, 0xFF, 0xFF, 0xFF, 0xFF, 0xFF, 
  0xFF, 0xDF, 0x1E, 0x58, 0x00, 0x00, 0x00, 0x00, 0x12, 0x00, 0x20, 0xE8, 
  0xFF, 0xFF, 0xFF, 0xFF, 0xFF, 0xFF, 0x6F, 0x20, 0x89, 0x29, 0x19, 0x04, 
  0x00, 0x00, 0x13, 0x27, 0x11, 0xC0, 0xFF, 0xFF, 0xFF, 0xFF, 0xFF, 0xFF, 
  0x0F, 0x00, 0x6C, 0xDD, 0x1C, 0x0F, 0x00, 0x00, 0x88, 0x14, 0x0D, 0x80, 
  0xFF, 0xFF, 0xFF, 0xFF, 0xFF, 0xFF, 0x07, 0x10, 0xE4, 0x46, 0x86, 0x26, 
  0x00, 0x00, 0x6E, 0x92, 0x0C, 0x80, 0xFF, 0xFF, 0xFF, 0xFF, 0xFF, 0xFF, 
  0x07, 0x10, 0x12, 0x23, 0x63, 0x0A, 0x00, 0x00, 0x3C, 0x6E, 0x22, 0x80, 
  0xFF, 0xFF, 0xFF, 0xFF, 0xFF, 0xFF, 0x07, 0x90, 0x73, 0xBE, 0xDD, 0x03, 
  0x00, 0x00, 0x67, 0x18, 0x0E, 0xF8, 0xFF, 0xFF, 0xFF, 0xFF, 0xFF, 0xFF, 
  0x3F, 0x40, 0x00, 0x00, 0x00, 0x00, 0x00, 0xC0, 0x02, 0x00, 0x00, 0xFE, 
  0xFF, 0xFF, 0xFF, 0xFF, 0xFF, 0xFF, 0xFF, 0x03, 0x00, 0x00, 0x00, 0x00, 
  0x00, 0x20, 0x01, 0x00, 0xC0, 0xFF, 0xFD, 0xFF, 0xFF, 0xFF, 0xFF, 0xFF, 
  0xFD, 0x0F, 0x00, 0x00, 0x00, 0x00, 0x00, 0x90, 0x01, 0x00, 0x80, 0x3F, 
  0xF8, 0xFF, 0xFF, 0xFF, 0xFF, 0xFF, 0xE0, 0x0F, 0x00, 0x00, 0x00, 0x00, 
  0x00, 0x88, 0x00, 0x10, 0x80, 0x07, 0xF0, 0xFF, 0xFF, 0xFF, 0xFF, 0x3F, 
  0x80, 0x07, 0x00, 0x00, 0x00, 0x00, 0x00, 0x44, 0x00, 0x38, 0x00, 0x00, 
  0xE0, 0xFF, 0xFF, 0xFF, 0xFF, 0x1F, 0x00, 0x00, 0x1E, 0x00, 0x00, 0x00, 
  0x00, 0x60, 0x00, 0x78, 0x00, 0x00, 0x80, 0xFF, 0xFF, 0xFF, 0xFF, 0x07, 
  0x00, 0x00, 0x3F, 0x00, 0x00, 0x00, 0x00, 0x18, 0x00, 0xF8, 0x00, 0x00, 
  0x00, 0xFE, 0xFF, 0xFF, 0xFF, 0x01, 0x00, 0x80, 0x3F, 0x00, 0x00, 0x00, 
  0x00, 0x00, 0x00, 0xFC, 0x00, 0x00, 0x00, 0xF8, 0xFF, 0xFF, 0x7F, 0x00, 
  0x00, 0x80, 0xF9, 0x00, 0x00, 0x00, 0x00, 0x00, 0x00, 0xFE, 0x00, 0x00, 
  0x00, 0xE0, 0xFF, 0xFF, 0x1F, 0x00, 0x00, 0xC0, 0xF0, 0x1B, 0x00, 0x00, 
  0x00, 0x00, 0x00, 0xEF, 0x00, 0x00, 0x00, 0x00, 0xFF, 0xFF, 0x01, 0x00, 
  0x00, 0xE0, 0xF8, 0x1F, 0x00, 0x00, 0x00, 0x00, 0x80, 0x77, 0x00, 0x00, 
  0x00, 0x00, 0xE0, 0x17, 0x00, 0x00, 0x00, 0xE0, 0x19, 0x0F, 0x00, 0x00, 
  0x00, 0x00, 0xF0, 0x77, 0x38, 0x00, 0x00, 0x00, 0x00, 0x00, 0x00, 0x00, 
  0x00, 0xF0, 0x1F, 0x06, 0x00, 0x00, 0x00, 0x00, 0xE0, 0x71, 0x7E, 0x00, 
  0x00, 0x00, 0x00, 0x00, 0x00, 0x00, 0x00, 0xB0, 0x0F, 0x00, 0x00, 0x00, 
  0x00, 0x00, 0xE0, 0xF9, 0xFF, 0x00, 0x00, 0x00, 0x00, 0x00, 0x00, 0x00, 
  0x00, 0x3C, 0x3F, 0x01, 0x00, 0x00, 0x00, 0x00, 0x80, 0xF9, 0xFF, 0x01, 
  0x00, 0x00, 0x00, 0x00, 0x00, 0x00, 0x00, 0x3E, 0xFC, 0x01, 0x00, 0x00, 
  0x00, 0x00, 0x00, 0xFD, 0xBC, 0x02, 0x00, 0x00, 0x00, 0x00, 0x00, 0x00, 
  0x00, 0x3F, 0xF0, 0x01, 0x00, 0x00, 0x00, 0x00, 0x00, 0x38, 0x1E, 0x07, 
  0x00, 0x00, 0x00, 0x00, 0x00, 0x00, 0xC0, 0x03, 0xE0, 0x00, 0x00, 0x00, 
  0x00, 0x00, 0x00, 0x00, 0x0F, 0x1E, 0x00, 0x00, 0x00, 0x00, 0x00, 0x00, 
  0xE0, 0x01, 0xE0, 0x00, 0x00, 0x00, 0x00, 0x00, 0x00, 0xA0, 0x07, 0x7F, 
  0x00, 0x00, 0x00, 0x00, 0x00, 0x00, 0xF0, 0x1C, 0x40, 0x00, 0x00, 0x00, 
  0x00, 0x00, 0x00, 0xF0, 0x03, 0xE7, 0x00, 0x00, 0x00, 0x00, 0x00, 0x00, 
  0xFC, 0x3D, 0x00, 0x00, 0x00, 0x00, 0x00, 0x00, 0x00, 0xE0, 0x83, 0xC7, 
  0x03, 0x00, 0x00, 0x00, 0x00, 0x00, 0xCF, 0x3F, 0x07, 0x00, 0x00, 0x00, 
  0x00, 0x00, 0x00, 0xC0, 0x81, 0x97, 0x03, 0x00, 0x00, 0x00, 0x00, 0xC0, 
  0x9F, 0x3F, 0x07, 0x00, 0x00, 0x00, 0x00, 0x00, 0x00, 0x80, 0xC3, 0xBF, 
  0xFF, 0x01, 0x00, 0x00, 0x00, 0xF0, 0x8F, 0x07, 0x0F, 0x00, 0x00, 0x00, 
  0x00, 0x00, 0x00, 0x00, 0xE0, 0x1F, 0xFF, 0x07, 0x00, 0x00, 0x00, 0xFC, 
  0x01, 0x8F, 0x07, 0x00, 0x00, 0x00, 0x00, 0x00, 0x00, 0x00, 0xE0, 0x8C, 
  0x9F, 0x0F, 0x00, 0x00, 0xB8, 0xDD, 0x01, 0xDE, 0x01, 0x00, 0x00, 0x00, 
  0x00, 0x00, 0x00, 0x00, 0xF8, 0x8C, 0x03, 0xDE, 0xF7, 0xB1, 0xFE, 0xDD, 
  0x03, 0xFC, 0x00, 0x00, 0x00, 0x00, 0x00, 0x00, 0x00, 0x00, 0xF8, 0x80, 
  0x03, 0xFC, 0xF3, 0xFB, 0xCF, 0x99, 0x03, 0x3C, 0x00, 0x00, 0x00, 0x00, 
  0x00, 0x00, 0x00, 0x00, 0xE0, 0xD1, 0x03, 0xB8, 0xE3, 0xF1, 0x87, 0x01, 
  0x07, 0x1C, 0x00, 0x00, 0x00, 0x00, 0x00, 0x00, 0x00, 0x00, 0x80, 0xFF, 
  0x01, 0xB8, 0xE3, 0x71, 0x0F, 0x00, 0x07, 0x08, 0x00, 0x00, 0x00, 0x00, 
  0x00, 0x00, 0x00, 0x00, 0x00, 0xFF, 0x01, 0xB8, 0xE3, 0x31, 0x7F, 0x00, 
  0x0F, 0x00, 0x00, 0x00, 0x00, 0x00, 0x00, 0x00, 0x00, 0x00, 0x00, 0x9C, 
  0x03, 0xBC, 0xF7, 0x39, 0xFE, 0x03, 0x3E, 0x00, 0x00, 0x00, 0x00, 0x00, 
  0x00, 0x00, 0x00, 0x00, 0x00, 0x80, 0x03, 0x1C, 0xF7, 0x3B, 0xF8, 0x07, 
  0x3E, 0x00, 0x00, 0x00, 0x00, 0x00, 0x00, 0x00, 0x00, 0x00, 0x00, 0x00, 
  0x0F, 0x1E, 0xBF, 0x1F, 0x80, 0x07, 0x1E, 0x00, 0x00, 0x00, 0x00, 0x00, 
  0x00, 0x00, 0x00, 0x00, 0x00, 0x00, 0xFF, 0x0F, 0xBE, 0x1F, 0x06, 0x07, 
  0x06, 0x00, 0x00, 0x00, 0x00, 0x00, 0x00, 0x00, 0x00, 0x00, 0x00, 0x00, 
  0xFC, 0x07, 0x3E, 0x1F, 0x0E, 0x07, 0x00, 0x00, 0x00, 0x00, 0x00, 0x00, 
  0x00, 0x00, 0x00, 0x00, 0x00, 0x00, 0xE0, 0x01, 0x1E, 0x0F, 0xBE, 0x07, 
  0x00, 0x00, 0x00, 0x00, 0x00, 0x00, 0x00, 0x00, 0x00, 0x00, 0x00, 0x00, 
  0x00, 0x00, 0x1E, 0x0E, 0xFE, 0x03, 0x00, 0x00, 0x00, 0x00, 0x00, 0x00, 
  0x00, 0x00, 0x00, 0x00, 0x00, 0x00, 0x00, 0x00, 0x0C, 0x06, 0xEC, 0x00, 
  0x00, 0x00, 0x00, 0x00, 0x00, 0x00, 0x00, 0x00, 0x00, 0x00, 0x00, 0x00, 
  0x00, 0x00, 0x04, 0x06, 0x00, 0x00, 0x00, 0x00, 0x00, 0x00, 0x00, 0x00, 
  0x00, 0x00, 0x00, 0x00, 0x00, 0x00, 0x00, 0x00, 0x00, 0x00, 0x00, 0x00, 
  0x00, 0x00, 0x00, 0x00, 0x00, 0x00, 0x00, 0x00, 0x00, 0x00, 0x00, 0x00, 
  0x00, 0x00, 0x00, 0x00, 0x00, 0x00, 0x00, 0x00, 0x00, 0x00, 0x00, 0x00, 
  0x00, 0x00, 0x00, 0x00, 0x00, 0x00, 0x00, 0x00, 0x00, 0x00, 0x00, 0x00, 
  0x00, 0x00, 0x00, 0x00, 0x00, 0x00, 0x00, 0x00, 0x00, 0x00, 0x00, 0x00, 
  0x00, 0x00, 0x00, 0x00, 0x00, 0x00, 0x00, 0x00, 0x00, 0x00, 0x00, 0x00, 
  0x00, 0x00, 0x00, 0x00, 0x00, 0x00, 0x00, 0x00, 0x00, 0x00, 0x00, 0x00, 
  0x00, 0x00, 0x00, 0x00, 0x00, 0x00, 0x00, 0x00, 0x00, 0x00, 0x00, 0x00, 
  0x00, 0x00, 0x00, 0x00, 0x00, 0x00, 0x00, 0x00, 0x00, 0x00, 0x00, 0x00, 
  0x00, 0x00, 0x00, 0x00, 0x00, 0x00, 0x00, 0x00, 0x00, 0x00, 0x00, 0x00, 
  0x00, 0x00, 0x00, 0x00, 0x00, 0x00, 0x00, 0x00, 0x00, 0x00, 0x00, 0x00, 
  0x00, 0x00, 0x00, 0x00, 0x00, 0x00, 0x00, 0x00, 0x00, 0x00, 0x00, 0x00, 
  0x00, 0x00, 0x00, 0x00, 0x00, 0x00, 0x00, 0x00, 0x00, 0x00, 0x00, 0x00, 
  0x00, 0x00, 0x00, 0x00, 0x00, 0x00, 0x00, 0x00, 0x00, 0x00, 0x00, 0x00, 
  0x00, 0x00, 0x00, 0x00, 0x00, 0x00, 0x00, 0x00, 0x00, 0x00, 0x00, 0x00, 
  };
