#define 2370_483a2316dc5cbbc2fa3428b84d9f547333c4e90a9ee15fe418b76766cc4e3a00_width 200
#define 2370_483a2316dc5cbbc2fa3428b84d9f547333c4e90a9ee15fe418b76766cc4e3a00_height 96
static char 2370_483a2316dc5cbbc2fa3428b84d9f547333c4e90a9ee15fe418b76766cc4e3a00_bits[] = {
  0x00, 0x00, 0x00, 0x00, 0x00, 0x00, 0x00, 0x00, 0x00, 0x00, 0x00, 0x00, 
  0x00, 0x00, 0x00, 0x00, 0x00, 0x00, 0x00, 0x00, 0x00, 0x00, 0x00, 0x00, 
  0x00, 0x00, 0x00, 0x00, 0x00, 0x00, 0x00, 0x00, 0x00, 0x00, 0x00, 0x00, 
  0x00, 0x00, 0x00, 0x00, 0x00, 0x00, 0x00, 0x00, 0x00, 0x00, 0x00, 0x00, 
  0x00, 0x00, 0x00, 0x00, 0x00, 0x00, 0x00, 0x00, 0x00, 0x00, 0x00, 0x00, 
  0x00, 0x00, 0x00, 0x00, 0x00, 0x00, 0x00, 0x00, 0x00, 0x00, 0x00, 0x00, 
  0x00, 0x00, 0x00, 0x00, 0x00, 0x00, 0x00, 0x00, 0x00, 0x00, 0x00, 0x00, 
  0x00, 0x00, 0x00, 0x00, 0x00, 0x00, 0x00, 0x00, 0x00, 0x00, 0x00, 0x00, 
  0x00, 0x00, 0x00, 0x00, 0x00, 0x00, 0x00, 0x00, 0x00, 0x00, 0x00, 0x00, 
  0x00, 0x00, 0x00, 0x00, 0x00, 0x00, 0x00, 0x00, 0x00, 0x00, 0x00, 0x00, 
  0x00, 0x00, 0x00, 0x00, 0x00, 0x00, 0x00, 0x00, 0x00, 0x00, 0x00, 0x00, 
  0x00, 0x00, 0x00, 0x00, 0x00, 0x00, 0x00, 0x00, 0x00, 0x00, 0x00, 0x00, 
  0x00, 0x00, 0x00, 0x00, 0x00, 0x00, 0x00, 0x00, 0x00, 0x00, 0x00, 0x00, 
  0x00, 0x00, 0x00, 0x00, 0x00, 0x00, 0x00, 0x00, 0x00, 0x00, 0x00, 0x00, 
  0x00, 0x00, 0x00, 0x00, 0x00, 0x00, 0x00, 0x00, 0x00, 0x00, 0x00, 0x00, 
  0x00, 0x00, 0x00, 0x00, 0x00, 0x00, 0x00, 0x00, 0x00, 0x00, 0x00, 0x00, 
  0x00, 0x00, 0x00, 0x00, 0x00, 0x00, 0x00, 0x00, 0x00, 0x00, 0x00, 0x00, 
  0x00, 0x00, 0x00, 0x00, 0x00, 0x00, 0x00, 0x00, 0x00, 0x00, 0x00, 0x00, 
  0x00, 0x00, 0x00, 0x00, 0x00, 0x00, 0x00, 0x00, 0x00, 0x00, 0x00, 0x00, 
  0x00, 0x00, 0x00, 0x00, 0x00, 0x00, 0x00, 0x00, 0x00, 0x00, 0x00, 0x00, 
  0x00, 0x00, 0x00, 0x00, 0x00, 0x00, 0x00, 0x00, 0x00, 0x00, 0x00, 0x00, 
  0x08, 0x14, 0x44, 0x88, 0x01, 0x01, 0x00, 0x00, 0x00, 0x00, 0x00, 0x00, 
  0xF8, 0x1F, 0x00, 0x60, 0x01, 0x00, 0x16, 0x00, 0x29, 0x00, 0x00, 0x00, 
  0x00, 0xFE, 0xFF, 0xF7, 0x7F, 0xFF, 0x7F, 0x00, 0x00, 0x00, 0x00, 0x00, 
  0x00, 0xFF, 0x7F, 0x00, 0xF0, 0x03, 0x00, 0x3F, 0x00, 0x3F, 0x00, 0x00, 
  0x00, 0x00, 0xDE, 0x7F, 0xFF, 0xFF, 0xF7, 0x77, 0x00, 0x00, 0x00, 0x00, 
  0x00, 0x80, 0xFF, 0xFF, 0x01, 0xF0, 0x03, 0x00, 0x3F, 0x00, 0x3F, 0x00, 
  0x00, 0x00, 0x00, 0xFE, 0xFD, 0xFF, 0xFF, 0xFF, 0x7F, 0x00, 0x00, 0x00, 
  0x00, 0x00, 0xC0, 0xFF, 0xFF, 0x03, 0xF0, 0x03, 0x00, 0x3E, 0x00, 0x3F, 
  0x00, 0x00, 0x00, 0x00, 0xB6, 0xFF, 0x5E, 0xEF, 0xBF, 0x3F, 0x00, 0x00, 
  0x00, 0x00, 0x00, 0xC0, 0xFF, 0xFF, 0x07, 0xF0, 0x03, 0x00, 0x3F, 0x80, 
  0x3F, 0x00, 0x00, 0x00, 0x00, 0xFE, 0xEF, 0xFF, 0xF7, 0xFE, 0x7E, 0x00, 
  0x00, 0x00, 0x00, 0x00, 0xE0, 0xBF, 0xFC, 0x07, 0xF8, 0x03, 0x00, 0x3F, 
  0x00, 0x3F, 0x00, 0x00, 0x00, 0x00, 0xFE, 0x7F, 0xDF, 0xFB, 0xF7, 0x6F, 
  0x00, 0x00, 0x00, 0x00, 0x00, 0xF0, 0x0F, 0xF0, 0x0F, 0xF0, 0x03, 0x00, 
  0x3F, 0x00, 0x3F, 0x00, 0x00, 0x00, 0x00, 0xDE, 0xFD, 0xFF, 0xBF, 0xFF, 
  0x7F, 0x00, 0x00, 0x00, 0x00, 0x00, 0xF0, 0x07, 0xC0, 0x0F, 0xF0, 0x03, 
  0x00, 0x3F, 0x80, 0x3F, 0x00, 0x00, 0x00, 0x00, 0xFA, 0xE7, 0xFD, 0xFD, 
  0xAF, 0x76, 0x00, 0x00, 0x00, 0x00, 0x00, 0xF8, 0x03, 0xC0, 0x1F, 0xF0, 
  0x03, 0x00, 0x3F, 0x00, 0x3F, 0x00, 0x00, 0x00, 0x00, 0xFE, 0xFF, 0x7F, 
  0xBF, 0xFE, 0x7F, 0x00, 0x00, 0x00, 0x00, 0x00, 0xF8, 0x01, 0x80, 0x1F, 
  0xF8, 0x03, 0x00, 0x7E, 0x00, 0x3F, 0x00, 0x00, 0x00, 0x00, 0x7E, 0xFF, 
  0xFF, 0xEF, 0xFF, 0x7F, 0x00, 0x00, 0x00, 0x00, 0x00, 0xF8, 0x01, 0x80, 
  0x1F, 0xF8, 0x03, 0x00, 0x3F, 0x80, 0x3F, 0x00, 0x00, 0x00, 0x00, 0xF6, 
  0xFE, 0xE7, 0xFF, 0xEF, 0x67, 0x00, 0x00, 0x00, 0x00, 0x00, 0xFC, 0x01, 
  0x80, 0x1F, 0xF0, 0x03, 0x00, 0x3F, 0x00, 0x3F, 0x00, 0x00, 0x00, 0x00, 
  0xFE, 0xBF, 0xFF, 0xFD, 0xFB, 0x7F, 0x00, 0x00, 0x00, 0x00, 0x00, 0xFC, 
  0x01, 0x00, 0x00, 0xF0, 0x03, 0x00, 0x3F, 0x00, 0x3F, 0x00, 0x00, 0x00, 
  0x00, 0xDE, 0xFB, 0xFD, 0x7F, 0xFF, 0x7E, 0x00, 0x00, 0x00, 0x00, 0x00, 
  0xFC, 0x00, 0x00, 0x00, 0xF0, 0x03, 0x00, 0x7F, 0x80, 0x3F, 0x00, 0x00, 
  0x00, 0x00, 0xFE, 0x7B, 0x62, 0x49, 0x90, 0x12, 0x10, 0x00, 0x00, 0x00, 
  0x00, 0xFC, 0x00, 0x00, 0x00, 0xF0, 0x03, 0x00, 0x3F, 0x00, 0x3F, 0x00, 
  0x00, 0x00, 0x00, 0xDE, 0x7F, 0x19, 0x32, 0x65, 0x59, 0x04, 0x02, 0x00, 
  0x00, 0x00, 0xFC, 0x00, 0x00, 0x00, 0xF8, 0x03, 0x00, 0x3F, 0x00, 0x3F, 
  0x00, 0x00, 0x00, 0x00, 0xFA, 0x7E, 0xC9, 0x8A, 0x24, 0x49, 0x01, 0x00, 
  0x00, 0x00, 0x00, 0xFC, 0x00, 0x00, 0x00, 0xF0, 0xFF, 0xFF, 0x3F, 0x80, 
  0x3F, 0x00, 0x00, 0x00, 0x00, 0xFE, 0xFF, 0x22, 0x68, 0x99, 0x24, 0x40, 
  0x08, 0x00, 0x00, 0x00, 0xFC, 0x00, 0x00, 0x00, 0xF0, 0xFF, 0xFF, 0x3F, 
  0x00, 0x3F, 0x00, 0x00, 0x00, 0x00, 0x7E, 0x6F, 0x1C, 0x29, 0x42, 0x24, 
  0x00, 0x0A, 0x00, 0x00, 0x00, 0xFC, 0x00, 0x00, 0x00, 0xF0, 0xFF, 0xFF, 
  0x7F, 0x00, 0x3F, 0x00, 0x00, 0x00, 0x00, 0xFE, 0x7F, 0xC1, 0x96, 0x6C, 
  0x49, 0x04, 0x00, 0x00, 0x00, 0x00, 0xFC, 0x00, 0x00, 0x00, 0xF0, 0xFF, 
  0xFF, 0x3F, 0x80, 0x3F, 0x00, 0x00, 0x00, 0x00, 0xFA, 0x7A, 0x56, 0x92, 
  0x01, 0x59, 0x90, 0x04, 0x00, 0x00, 0x00, 0xFC, 0x00, 0x00, 0x00, 0xF0, 
  0xFF, 0xFF, 0x3F, 0x00, 0x3F, 0x00, 0x00, 0x00, 0x00, 0xEE, 0xFF, 0x12, 
  0x29, 0xB6, 0x12, 0x02, 0x00, 0x00, 0x00, 0x00, 0xFC, 0x00, 0x00, 0x00, 
  0xF8, 0x03, 0x00, 0x3F, 0x00, 0x3F, 0x00, 0x00, 0x00, 0x00, 0xDE, 0xBB, 
  0x24, 0x91, 0x12, 0x29, 0x01, 0x00, 0x00, 0x00, 0x00, 0xFC, 0x00, 0x00, 
  0x00, 0xF0, 0x03, 0x00, 0x3F, 0x80, 0x3F, 0x00, 0x00, 0x00, 0x00, 0xFE, 
  0x7F, 0xA6, 0x25, 0x66, 0x66, 0x90, 0x09, 0x00, 0x00, 0x00, 0xFC, 0x00, 
  0x00, 0x00, 0xF0, 0x03, 0x00, 0x3F, 0x00, 0x3F, 0x00, 0x00, 0x00, 0x00, 
  0xF6, 0x7D, 0x90, 0x6C, 0x40, 0x02, 0x08, 0x00, 0x00, 0x00, 0x00, 0xFC, 
  0x00, 0x00, 0x00, 0xF0, 0x03, 0x00, 0x7F, 0x00, 0x3F, 0x00, 0x00, 0x00, 
  0x00, 0x7E, 0xFF, 0x4B, 0x91, 0x9D, 0x59, 0x00, 0x00, 0x00, 0x00, 0x00, 
  0xFC, 0x01, 0x00, 0x00, 0xF8, 0x03, 0x00, 0x3F, 0x80, 0x3F, 0x00, 0x00, 
  0x00, 0x00, 0xFE, 0x6F, 0x66, 0x82, 0x12, 0x54, 0x00, 0x02, 0x00, 0x00, 
  0x00, 0xF8, 0x01, 0x80, 0x1F, 0xF8, 0x03, 0x00, 0x3F, 0x00, 0x3F, 0x00, 
  0x00, 0x00, 0x00, 0x7E, 0x7F, 0x08, 0x6C, 0xCA, 0x12, 0x41, 0x00, 0x00, 
  0x00, 0x00, 0xF8, 0x01, 0x80, 0x1F, 0xF0, 0x03, 0x00, 0x3E, 0x00, 0x3F, 
  0x00, 0x00, 0x00, 0x00, 0xDE, 0x7D, 0x93, 0x01, 0x04, 0x08, 0x04, 0x05, 
  0x00, 0x00, 0x00, 0xF8, 0x01, 0x80, 0x1F, 0xF0, 0x03, 0x00, 0x3F, 0x80, 
  0x3F, 0x00, 0x00, 0x00, 0x00, 0xFE, 0x7F, 0x64, 0x16, 0x00, 0x80, 0xDA, 
  0xF4, 0xFF, 0x07, 0x00, 0xF8, 0x03, 0xC0, 0x1F, 0xF0, 0x03, 0x00, 0x3F, 
  0x00, 0x3F, 0x00, 0x00, 0x00, 0x00, 0xDE, 0xF7, 0x66, 0x06, 0x00, 0x00, 
  0x49, 0xE9, 0xFF, 0x07, 0x00, 0xF0, 0x07, 0xE0, 0x0F, 0xF0, 0x03, 0x00, 
  0x3F, 0x00, 0x3F, 0x00, 0x00, 0x00, 0x00, 0xFE, 0x7F, 0x81, 0x10, 0x00, 
  0x00, 0xA6, 0xF6, 0xFF, 0x07, 0x00, 0xF0, 0x0F, 0xE0, 0x0F, 0xF8, 0x03, 
  0x00, 0x3F, 0x80, 0x3F, 0x00, 0x00, 0x00, 0x00, 0xFE, 0x6F, 0x18, 0x09, 
  0x00, 0x80, 0x69, 0xE9, 0xFF, 0x07, 0x00, 0xE0, 0x3F, 0xF8, 0x0F, 0xF0, 
  0x03, 0x00, 0x3F, 0x00, 0x3F, 0x00, 0x00, 0x00, 0x00, 0x76, 0xFE, 0x66, 
  0x16, 0x00, 0x00, 0x56, 0xE2, 0xFF, 0x07, 0x00, 0xE0, 0xFF, 0xFF, 0x07, 
  0xF0, 0x03, 0x00, 0x7E, 0x00, 0x3F, 0x00, 0x00, 0x00, 0x00, 0xFE, 0x7F, 
  0xC2, 0x09, 0x00, 0x80, 0x45, 0xFA, 0xFF, 0x07, 0x00, 0x80, 0xFF, 0xFF, 
  0x03, 0xF0, 0x03, 0x00, 0x3F, 0x80, 0x3F, 0x00, 0x00, 0x00, 0x00, 0xEE, 
  0x6F, 0x19, 0x04, 0x00, 0x00, 0x92, 0xE6, 0xFF, 0x07, 0x00, 0x80, 0xFF, 
  0xFF, 0x01, 0xF0, 0x03, 0x00, 0x3F, 0x00, 0x3F, 0x00, 0x00, 0x00, 0x00, 
  0xBE, 0xFB, 0x65, 0x05, 0x00, 0x00, 0x69, 0xE5, 0xFF, 0x07, 0x00, 0x00, 
  0xFE, 0x7F, 0x00, 0xF0, 0x03, 0x00, 0x3F, 0x00, 0x3F, 0x00, 0x00, 0x00, 
  0x00, 0xFE, 0x7F, 0x24, 0x11, 0x00, 0x00, 0x95, 0xF2, 0xFF, 0x07, 0x00, 
  0x00, 0xF8, 0x1F, 0x00, 0xF0, 0x03, 0x00, 0x3E, 0x00, 0x3F, 0x00, 0x00, 
  0x00, 0x00, 0xFE, 0x7F, 0x91, 0x11, 0x00, 0x80, 0x2A, 0xF1, 0xFF, 0x07, 
  0x00, 0x00, 0x00, 0x00, 0x00, 0x00, 0x00, 0x00, 0x00, 0x00, 0x00, 0x00, 
  0x00, 0x00, 0x00, 0x76, 0x7B, 0x25, 0x06, 0x00, 0x00, 0x91, 0xE6, 0xFF, 
  0x07, 0x00, 0x00, 0x00, 0x00, 0x00, 0x00, 0x00, 0x00, 0x00, 0x00, 0x00, 
  0x00, 0x00, 0x00, 0x00, 0xFE, 0xDF, 0x6C, 0x10, 0x00, 0x80, 0x65, 0xFB, 
  0xFF, 0x07, 0x00, 0x00, 0x00, 0x00, 0x00, 0x00, 0x00, 0x00, 0x00, 0x00, 
  0x00, 0x00, 0x00, 0x00, 0x00, 0xEE, 0x7D, 0x91, 0x0D, 0x00, 0x00, 0x9A, 
  0xE4, 0xFF, 0x07, 0x00, 0x00, 0x00, 0x00, 0x00, 0x00, 0x00, 0x00, 0x00, 
  0x00, 0x00, 0x00, 0x00, 0x00, 0x00, 0xFE, 0x7D, 0x82, 0x02, 0x00, 0x00, 
  0x56, 0xE9, 0xFF, 0x07, 0x00, 0x00, 0x00, 0x00, 0x00, 0x00, 0x00, 0x00, 
  0x00, 0x00, 0x00, 0x00, 0x00, 0x00, 0x00, 0xFE, 0xFF, 0x6C, 0x16, 0x00, 
  0x80, 0x99, 0xF2, 0xFF, 0x07, 0x00, 0x00, 0x00, 0x00, 0x00, 0x00, 0x00, 
  0x00, 0x00, 0x00, 0x00, 0x00, 0x00, 0x00, 0x00, 0x7A, 0x77, 0x05, 0x01, 
  0x00, 0x00, 0x22, 0xE9, 0xFF, 0x07, 0x00, 0x00, 0x00, 0x00, 0x00, 0x00, 
  0x00, 0x00, 0x00, 0x00, 0x00, 0x00, 0x00, 0x00, 0x00, 0xFE, 0x7F, 0xB1, 
  0x0C, 0x00, 0x80, 0x59, 0xF6, 0xFF, 0x07, 0x00, 0x00, 0x00, 0x00, 0x00, 
  0x00, 0x00, 0x00, 0x00, 0x00, 0x00, 0x00, 0x00, 0x00, 0x00, 0xB6, 0x77, 
  0x52, 0x05, 0x00, 0x00, 0x9A, 0xE6, 0xFF, 0x07, 0x00, 0x00, 0x00, 0x00, 
  0x00, 0x00, 0x00, 0x00, 0x00, 0x00, 0x00, 0x00, 0x00, 0x00, 0x00, 0x00, 
  0x00, 0x04, 0x60, 0x96, 0x96, 0x44, 0xF9, 0xFF, 0x07, 0x00, 0x00, 0x00, 
  0x00, 0x00, 0x00, 0x00, 0x00, 0x00, 0x00, 0x00, 0x00, 0x00, 0x00, 0x00, 
  0x00, 0x00, 0x41, 0x40, 0x59, 0x59, 0x99, 0xE2, 0xFF, 0x07, 0x00, 0x00, 
  0xFC, 0x01, 0xC0, 0x3F, 0x00, 0xF8, 0x00, 0xFC, 0x03, 0x00, 0x00, 0x00, 
  0x00, 0x00, 0x00, 0x00, 0x24, 0xA2, 0xA2, 0x6A, 0xF9, 0xFF, 0x07, 0x00, 
  0x00, 0xFF, 0x07, 0xF0, 0xFF, 0x00, 0xFE, 0x00, 0xFE, 0x0F, 0x00, 0x00, 
  0x00, 0x00, 0x00, 0x00, 0x00, 0x90, 0x15, 0x15, 0x59, 0xE5, 0xFF, 0x07, 
  0x00, 0x80, 0xFF, 0x0F, 0xF0, 0xFF, 0x01, 0xFF, 0x00, 0xFF, 0x1F, 0x00, 
  0x00, 0x00, 0x00, 0x00, 0x00, 0x04, 0x62, 0x62, 0x62, 0xA6, 0xF2, 0xFF, 
  0x07, 0x00, 0xC0, 0xDF, 0x1F, 0xFC, 0xF9, 0x83, 0xFF, 0x80, 0xBF, 0x3F, 
  0x00, 0x00, 0x00, 0x00, 0x00, 0x00, 0x90, 0x80, 0xBA, 0xBA, 0x89, 0xE9, 
  0xFF, 0x07, 0x00, 0xC0, 0x03, 0x1F, 0x7C, 0xF0, 0x83, 0x7F, 0xC0, 0x0F, 
  0x3E, 0x00, 0x00, 0x00, 0x00, 0x00, 0x00, 0x02, 0x64, 0x45, 0x45, 0x54, 
  0xF5, 0xFF, 0x07, 0x00, 0xC0, 0x03, 0x1E, 0x3C, 0xE0, 0x83, 0xFF, 0xC0, 
  0x07, 0x7E, 0x00, 0x00, 0x00, 0x00, 0x00, 0x00, 0x01, 0x21, 0x59, 0x45, 
  0xA5, 0xE8, 0xFF, 0x07, 0x00, 0xE0, 0x03, 0x3E, 0x3C, 0xE0, 0x83, 0xF9, 
  0xC0, 0x03, 0x7C, 0x00, 0x00, 0x00, 0x00, 0x00, 0x00, 0x90, 0xC0, 0x22, 
  0xBA, 0x56, 0xF6, 0xFF, 0x07, 0x00, 0x00, 0x00, 0x1E, 0x3C, 0xC0, 0x07, 
  0x78, 0xC0, 0x03, 0x7C, 0x00, 0x00, 0x00, 0x00, 0x00, 0x00, 0x08, 0x68, 
  0x99, 0x62, 0x5A, 0xED, 0xFF, 0x07, 0x00, 0x00, 0x00, 0x1E, 0x3E, 0xC0, 
  0x03, 0xF8, 0xC0, 0x03, 0x7C, 0x00, 0x00, 0x00, 0x00, 0x00, 0x00, 0x00, 
  0x80, 0x56, 0x15, 0xA4, 0xF2, 0xFF, 0x07, 0x00, 0x00, 0x00, 0x1E, 0x3E, 
  0xC0, 0x03, 0xF8, 0xC0, 0x07, 0x3E, 0x00, 0x00, 0x00, 0x00, 0x00, 0x00, 
  0x00, 0x20, 0x9A, 0xA2, 0x25, 0xE4, 0xFF, 0x07, 0x00, 0x00, 0x00, 0x1F, 
  0x3E, 0xC0, 0x03, 0x78, 0x80, 0x0F, 0x3E, 0x00, 0x00, 0x00, 0x00, 0x00, 
  0x00, 0x41, 0x82, 0x45, 0x59, 0x5A, 0xE3, 0xFF, 0x07, 0x00, 0x00, 0x80, 
  0x1F, 0x3C, 0xC0, 0x07, 0xF8, 0x00, 0xBF, 0x1F, 0x00, 0x00, 0x00, 0x00, 
  0x00, 0x00, 0x00, 0xE0, 0x77, 0xDF, 0xD7, 0xFF, 0xFF, 0x07, 0x00, 0x00, 
  0x80, 0x0F, 0x3E, 0xC0, 0x03, 0xF8, 0x00, 0xFE, 0x0F, 0x00, 0x00, 0x00, 
  0x00, 0x00, 0x00, 0x00, 0xE0, 0xFF, 0xFF, 0xFF, 0xFF, 0xFF, 0x07, 0x00, 
  0x00, 0xC0, 0x07, 0x3E, 0xC0, 0x03, 0x78, 0x00, 0xFE, 0x0F, 0x00, 0x00, 
  0x00, 0x00, 0x00, 0x00, 0x00, 0xE0, 0xFF, 0xFF, 0xFF, 0xFF, 0xFF, 0x07, 
  0x00, 0x00, 0xE0, 0x03, 0x3E, 0xC0, 0x03, 0xF8, 0x00, 0xFF, 0x1F, 0x00, 
  0x00, 0x00, 0x00, 0x00, 0x00, 0x00, 0xE0, 0xFF, 0xFF, 0xFF, 0xFF, 0xFF, 
  0x07, 0x00, 0x00, 0xF0, 0x03, 0x3C, 0xC0, 0x03, 0xF8, 0x80, 0x1F, 0x3F, 
  0x00, 0x00, 0x00, 0x00, 0x00, 0x00, 0x00, 0xE0, 0xFF, 0xFF, 0xFF, 0xFF, 
  0xFF, 0x07, 0x00, 0x00, 0xF8, 0x01, 0x3E, 0xC0, 0x07, 0x78, 0xC0, 0x07, 
  0x3E, 0x00, 0x00, 0x00, 0x00, 0x00, 0x00, 0x00, 0xE0, 0xFF, 0xFF, 0xFF, 
  0xFF, 0xFF, 0x07, 0x00, 0x00, 0xF8, 0x00, 0x3E, 0xC0, 0x03, 0xF8, 0xC0, 
  0x03, 0x7C, 0x00, 0x00, 0x00, 0x00, 0x00, 0x00, 0x00, 0xE0, 0xFF, 0xFF, 
  0xFF, 0xFF, 0xFF, 0x07, 0x00, 0x00, 0x7C, 0x00, 0x3E, 0xC0, 0x07, 0xF8, 
  0xC0, 0x03, 0x7C, 0x00, 0x00, 0x00, 0x00, 0x00, 0x00, 0x00, 0xE0, 0xFF, 
  0xFF, 0xFF, 0xFF, 0xFF, 0x07, 0x00, 0x00, 0x3E, 0x00, 0x3E, 0xC0, 0x03, 
  0x78, 0xC0, 0x03, 0x7C, 0x00, 0x00, 0x00, 0x00, 0x00, 0x00, 0x00, 0xE0, 
  0xFF, 0xFF, 0xFF, 0xFF, 0xFF, 0x07, 0x00, 0x00, 0x1F, 0x00, 0x3C, 0xC0, 
  0x03, 0xF8, 0xC0, 0x03, 0x7C, 0x00, 0x00, 0x00, 0x00, 0x00, 0x00, 0x00, 
  0xE0, 0xFF, 0xFF, 0xFF, 0xFF, 0xFF, 0x07, 0x00, 0x80, 0x1F, 0x00, 0x3C, 
  0xE0, 0x03, 0xF8, 0xC0, 0x07, 0x7C, 0x00, 0x00, 0x00, 0x00, 0x00, 0x00, 
  0x00, 0xE0, 0xFF, 0xFF, 0xFF, 0xFF, 0xFF, 0x07, 0x00, 0xC0, 0x0F, 0x00, 
  0x7C, 0xF0, 0x03, 0xF8, 0xC0, 0x0F, 0x7E, 0x00, 0x00, 0x00, 0x00, 0x00, 
  0x00, 0x00, 0xE0, 0xFF, 0xFF, 0xFF, 0xFF, 0xFF, 0x07, 0x00, 0xC0, 0xFF, 
  0x1F, 0xF8, 0xFD, 0x03, 0x78, 0x80, 0x9F, 0x3F, 0x00, 0x00, 0x00, 0x00, 
  0x00, 0x00, 0x00, 0xE0, 0xFF, 0xFF, 0xFF, 0xFF, 0xFF, 0x07, 0x00, 0xE0, 
  0xFF, 0x1F, 0xF8, 0xFF, 0x01, 0xF8, 0x80, 0xFF, 0x1F, 0x00, 0x00, 0x00, 
  0x00, 0x00, 0x00, 0x00, 0xE0, 0xFF, 0xFF, 0xFF, 0xFF, 0xFF, 0x07, 0x00, 
  0xE0, 0xFF, 0x1F, 0xF0, 0xFF, 0x00, 0xF8, 0x00, 0xFF, 0x1F, 0x00, 0x00, 
  0x00, 0x00, 0x00, 0x00, 0x00, 0xE0, 0xFF, 0xFF, 0xFF, 0xFF, 0xFF, 0x07, 
  0x00, 0xE0, 0xFF, 0x1F, 0xE0, 0x7F, 0x00, 0xF8, 0x00, 0xFE, 0x07, 0x00, 
  0x00, 0x00, 0x00, 0x00, 0x00, 0x00, 0x00, 0x00, 0x00, 0x00, 0x00, 0x00, 
  0x00, 0x00, 0x00, 0x00, 0x00, 0x00, 0x06, 0x00, 0x00, 0x00, 0x40, 0x00, 
  0x00, 0x00, 0x00, 0x00, 0x00, 0x00, 0x00, 0x00, 0x00, 0x00, 0x00, 0x00, 
  0x00, 0x00, 0x00, 0x00, 0x00, 0x00, 0x00, 0x00, 0x00, 0x00, 0x00, 0x00, 
  0x00, 0x00, 0x00, 0x00, 0x00, 0x00, 0x00, 0x00, 0x00, 0x00, 0x00, 0x00, 
  0x00, 0x00, 0x00, 0x00, 0x00, 0x00, 0x00, 0x00, 0x00, 0x00, 0x00, 0x00, 
  0x00, 0x00, 0x00, 0x00, 0x00, 0x00, 0x00, 0x00, 0x00, 0x00, 0x00, 0x00, 
  0x00, 0x00, 0x00, 0x00, 0x00, 0x00, 0x00, 0x00, 0x00, 0x00, 0x00, 0x00, 
  0x00, 0x00, 0x00, 0x00, 0x00, 0x00, 0x00, 0x00, 0x00, 0x00, 0x00, 0x00, 
  0x00, 0x00, 0x00, 0x00, 0x00, 0x00, 0x00, 0x00, 0x00, 0x00, 0x00, 0x00, 
  0x00, 0x00, 0x00, 0x00, 0x00, 0x00, 0x00, 0x00, 0x00, 0x00, 0x00, 0x00, 
  0x00, 0x00, 0x00, 0x00, 0x00, 0x00, 0x00, 0x00, 0x00, 0x00, 0x00, 0x00, 
  0x00, 0x00, 0x00, 0x00, 0x00, 0x00, 0x00, 0x00, 0x00, 0x00, 0x00, 0x00, 
  0x00, 0x00, 0x00, 0x00, 0x00, 0x00, 0x00, 0x00, 0x00, 0x00, 0x00, 0x00, 
  0x00, 0x00, 0x00, 0x00, 0x00, 0x00, 0x00, 0x00, 0x00, 0x00, 0x00, 0x00, 
  0x00, 0x00, 0x00, 0x00, 0x00, 0x00, 0x00, 0x00, 0x00, 0x00, 0x00, 0x00, 
  0x00, 0x00, 0x00, 0x00, 0x00, 0x00, 0x00, 0x00, 0x00, 0x00, 0x00, 0x00, 
  0x00, 0x00, 0x00, 0x00, 0x00, 0x00, 0x00, 0x00, 0x00, 0x00, 0x00, 0x00, 
  0x00, 0x00, 0x00, 0x00, 0x00, 0x00, 0x00, 0x00, 0x00, 0x00, 0x00, 0x00, 
  0x00, 0x00, 0x00, 0x00, 0x00, 0x00, 0x00, 0x00, 0x00, 0x00, 0x00, 0x00, 
  0x00, 0x00, 0x00, 0x00, 0x00, 0x00, 0x00, 0x00, 0x00, 0x00, 0x00, 0x00, 
  0x00, 0x00, 0x00, 0x00, 0x00, 0x00, 0x00, 0x00, 0x00, 0x00, 0x00, 0x00, 
  0x00, 0x00, 0x00, 0x00, 0x00, 0x00, 0x00, 0x00, 0x00, 0x00, 0x00, 0x00, 
  };
