#define logo_1_44_width 128
#define logo_1_44_height 96
static unsigned char logo_1_44_bits[] = {
  0x00, 0x00, 0x00, 0x00, 0x00, 0x00, 0x00, 0x00, 0x00, 0x00, 0x00, 0x00, 
  0x00, 0x00, 0x00, 0x00, 0x00, 0x00, 0x00, 0x00, 0x00, 0x00, 0x00, 0x00, 
  0x00, 0x00, 0x00, 0x00, 0x00, 0x00, 0x00, 0x00, 0x00, 0x00, 0x00, 0x00, 
  0x00, 0x00, 0x00, 0x00, 0x00, 0x00, 0x00, 0x00, 0x00, 0x00, 0x00, 0x00, 
  0x00, 0x00, 0x00, 0x00, 0x00, 0x00, 0x00, 0x00, 0x00, 0x00, 0x00, 0x00, 
  0x00, 0x00, 0x00, 0x00, 0x00, 0x00, 0x00, 0x00, 0x00, 0x00, 0x00, 0x00, 
  0x00, 0x00, 0x00, 0x00, 0x00, 0x00, 0x00, 0x00, 0x00, 0x00, 0x00, 0x00, 
  0x00, 0x00, 0x00, 0x00, 0x00, 0x00, 0x00, 0x00, 0x00, 0x00, 0x00, 0x00, 
  0x00, 0x00, 0x00, 0x00, 0x00, 0x00, 0x00, 0x00, 0x00, 0x00, 0x00, 0x00, 
  0x00, 0x00, 0x00, 0x00, 0x00, 0x00, 0x00, 0x00, 0x00, 0x00, 0x00, 0x00, 
  0x00, 0x00, 0x00, 0x00, 0x00, 0x00, 0x00, 0x00, 0x00, 0x00, 0x00, 0x00, 
  0x00, 0x00, 0x00, 0x00, 0x00, 0x00, 0x00, 0x00, 0x00, 0x00, 0x00, 0x00, 
  0x00, 0x00, 0x00, 0x00, 0x00, 0x00, 0x00, 0x00, 0x00, 0x00, 0x00, 0x00, 
  0x00, 0x00, 0x00, 0x00, 0x00, 0x00, 0x00, 0x00, 0x00, 0x00, 0x00, 0x00, 
  0x00, 0x00, 0x00, 0x00, 0x00, 0x00, 0x00, 0x00, 0x00, 0x00, 0x00, 0x00, 
  0x00, 0x00, 0x00, 0x00, 0x00, 0x00, 0x00, 0x00, 0x00, 0x00, 0x00, 0x00, 
  0x00, 0x00, 0x00, 0x00, 0x00, 0x00, 0x00, 0x00, 0x00, 0x00, 0x00, 0x00, 
  0x00, 0x00, 0x00, 0x00, 0x00, 0x00, 0x00, 0x00, 0x00, 0x00, 0x00, 0x00, 
  0x00, 0x00, 0x00, 0x00, 0x00, 0x00, 0x00, 0x00, 0x00, 0x00, 0x00, 0x00, 
  0x00, 0x00, 0x00, 0x00, 0x00, 0x00, 0x00, 0x00, 0x00, 0x00, 0x00, 0x00, 
  0x00, 0x00, 0x00, 0x00, 0x00, 0x00, 0x00, 0x00, 0x00, 0x00, 0x00, 0x00, 
  0x00, 0x00, 0x00, 0x00, 0x00, 0x00, 0x00, 0x00, 0x00, 0x00, 0x00, 0x00, 
  0x00, 0x00, 0x00, 0x00, 0x00, 0x00, 0x00, 0x00, 0x00, 0x00, 0x00, 0x00, 
  0x00, 0x00, 0x00, 0x00, 0x00, 0x00, 0x00, 0x00, 0x00, 0x00, 0x00, 0x00, 
  0x00, 0x00, 0x00, 0x00, 0x00, 0x00, 0x00, 0x00, 0x00, 0x00, 0x00, 0x00, 
  0x00, 0x00, 0x00, 0x00, 0x00, 0x00, 0x00, 0x00, 0x00, 0x00, 0x00, 0x00, 
  0x00, 0x00, 0x00, 0x00, 0x00, 0x00, 0x00, 0x00, 0x00, 0x00, 0x00, 0x00, 
  0x00, 0x00, 0x00, 0x00, 0x00, 0x00, 0x00, 0x00, 0x00, 0x00, 0x00, 0x00, 
  0x00, 0x00, 0x00, 0x00, 0x00, 0x00, 0x00, 0x00, 0x00, 0x00, 0x00, 0x00, 
  0x00, 0x00, 0x00, 0x00, 0x00, 0x00, 0x00, 0x00, 0x00, 0x00, 0x00, 0x00, 
  0x00, 0x00, 0x00, 0x00, 0x00, 0x00, 0x00, 0x00, 0x00, 0x54, 0xAA, 0x55, 
  0x55, 0x00, 0x00, 0x00, 0x00, 0xF8, 0x01, 0x68, 0x00, 0x1A, 0x58, 0x00, 
  0x00, 0xBE, 0x7F, 0xDF, 0x7E, 0x00, 0x00, 0x00, 0x00, 0xFF, 0x0F, 0x78, 
  0x00, 0x1E, 0x78, 0x00, 0x00, 0xEE, 0xFF, 0xFF, 0x7F, 0x00, 0x00, 0x00, 
  0x80, 0xFF, 0x1F, 0x78, 0x00, 0x1E, 0x78, 0x00, 0x00, 0xFA, 0xFE, 0xEB, 
  0xFF, 0x00, 0x00, 0x00, 0xC0, 0x9F, 0x1F, 0x78, 0x00, 0x1E, 0x78, 0x00, 
  0x00, 0xFE, 0xFB, 0xFF, 0x6F, 0x00, 0x00, 0x00, 0xC0, 0x07, 0x3E, 0x78, 
  0x00, 0x1E, 0x78, 0x00, 0x00, 0xFE, 0xEF, 0xFF, 0x77, 0x00, 0x00, 0x00, 
  0xC0, 0x03, 0x3C, 0x78, 0x00, 0x1E, 0x78, 0x00, 0x00, 0xFE, 0xFB, 0xF7, 
  0x7F, 0x00, 0x00, 0x00, 0xE0, 0x03, 0x3C, 0x78, 0x00, 0x1E, 0x78, 0x00, 
  0x00, 0x9E, 0xFF, 0x7F, 0xFF, 0x00, 0x00, 0x00, 0xE0, 0x01, 0x78, 0x78, 
  0x00, 0x1E, 0x78, 0x00, 0x00, 0xFE, 0xFF, 0xFE, 0x7D, 0x00, 0x00, 0x00, 
  0xE0, 0x01, 0x00, 0x78, 0x00, 0x1E, 0x78, 0x00, 0x00, 0xFA, 0xEB, 0xAA, 
  0xDA, 0x00, 0x00, 0x00, 0xE0, 0x01, 0x00, 0x78, 0x00, 0x1E, 0x78, 0x00, 
  0x00, 0xFE, 0x07, 0x51, 0x21, 0x04, 0x00, 0x00, 0xE0, 0x01, 0x00, 0xF8, 
  0x84, 0x1F, 0x78, 0x00, 0x00, 0x7E, 0x9F, 0x66, 0x96, 0x52, 0x00, 0x00, 
  0xE0, 0x01, 0x00, 0xF8, 0xFF, 0x1F, 0x78, 0x00, 0x00, 0xFE, 0x63, 0x29, 
  0x49, 0x00, 0x00, 0x00, 0xE0, 0x01, 0x00, 0xF8, 0xFF, 0x1F, 0x78, 0x00, 
  0x00, 0xBE, 0x93, 0x94, 0x54, 0x80, 0x00, 0x00, 0xE0, 0x01, 0x00, 0xF8, 
  0xFF, 0x1F, 0x78, 0x00, 0x00, 0xFE, 0x4B, 0x5A, 0x12, 0x02, 0x00, 0x00, 
  0xE0, 0x01, 0x00, 0x78, 0x00, 0x1E, 0x78, 0x00, 0x00, 0xFE, 0x5B, 0x43, 
  0xCB, 0x04, 0x00, 0x00, 0xE0, 0x01, 0x00, 0x78, 0x00, 0x1E, 0x78, 0x00, 
  0x00, 0xEE, 0x97, 0x94, 0x14, 0x42, 0x00, 0x00, 0xE0, 0x01, 0x00, 0x78, 
  0x00, 0x1E, 0x78, 0x00, 0x00, 0xFA, 0x23, 0x94, 0x24, 0x00, 0x00, 0x00, 
  0xE0, 0x01, 0x10, 0x78, 0x00, 0x1E, 0x78, 0x00, 0x00, 0xFE, 0x5B, 0x43, 
  0xCB, 0x10, 0x00, 0x00, 0xE0, 0x01, 0x78, 0x78, 0x00, 0x1E, 0x78, 0x00, 
  0x00, 0x7E, 0xCB, 0x0A, 0x00, 0x55, 0xA6, 0x01, 0xE0, 0x03, 0x3C, 0x78, 
  0x00, 0x1E, 0x78, 0x00, 0x00, 0xFE, 0x27, 0x04, 0x00, 0xAA, 0xFE, 0x03, 
  0xC0, 0x03, 0x3E, 0x78, 0x00, 0x1E, 0x78, 0x00, 0x00, 0xBE, 0x9E, 0x09, 
  0x00, 0xB5, 0xFF, 0x07, 0xC0, 0x0F, 0x1F, 0x78, 0x00, 0x1E, 0x78, 0x00, 
  0x00, 0xFE, 0x23, 0x02, 0x00, 0x4A, 0xFE, 0x03, 0x80, 0xFF, 0x1F, 0x78, 
  0x00, 0x1E, 0x78, 0x00, 0x00, 0xFE, 0xAB, 0x05, 0x00, 0xA6, 0xFF, 0x07, 
  0x00, 0xFF, 0x0F, 0x78, 0x00, 0x1E, 0x78, 0x00, 0x00, 0xEE, 0x97, 0x04, 
  0x00, 0x49, 0xFE, 0x03, 0x00, 0xFE, 0x07, 0x78, 0x00, 0x1F, 0x78, 0x00, 
  0x00, 0xFE, 0x27, 0x0C, 0x00, 0x92, 0xFE, 0x03, 0x00, 0x50, 0x00, 0x00, 
  0x00, 0x00, 0x00, 0x00, 0x00, 0x9E, 0x97, 0x01, 0x00, 0x69, 0xFE, 0x07, 
  0x00, 0x00, 0x00, 0x00, 0x00, 0x00, 0x00, 0x00, 0x00, 0xFE, 0x63, 0x06, 
  0x00, 0xD2, 0xFF, 0x03, 0x00, 0x00, 0x00, 0x00, 0x00, 0x00, 0x00, 0x00, 
  0x00, 0xFE, 0x4B, 0x02, 0x00, 0x2D, 0xFE, 0x07, 0x00, 0x00, 0x00, 0x00, 
  0x00, 0x00, 0x00, 0x00, 0x00, 0xFE, 0x9F, 0x0A, 0x00, 0x65, 0xFE, 0x03, 
  0x00, 0x00, 0x00, 0x00, 0x00, 0x00, 0x00, 0x00, 0x00, 0xFE, 0x63, 0x01, 
  0x00, 0x9A, 0xFF, 0x07, 0x00, 0x00, 0x00, 0x00, 0x00, 0x00, 0x00, 0x00, 
  0x00, 0x00, 0x24, 0x89, 0x00, 0x69, 0xFE, 0x03, 0x00, 0x00, 0x00, 0x00, 
  0x00, 0x00, 0x00, 0x00, 0x00, 0x00, 0x00, 0xA0, 0xB6, 0x94, 0xFE, 0x07, 
  0x00, 0x7C, 0x80, 0x1F, 0xE0, 0x80, 0x1F, 0x00, 0x00, 0x00, 0x20, 0x20, 
  0x45, 0x45, 0xFF, 0x07, 0x00, 0xFF, 0xC0, 0x3F, 0xF8, 0xC0, 0x7F, 0x00, 
  0x00, 0x00, 0x00, 0x9A, 0x96, 0x9A, 0xFE, 0x03, 0x80, 0xF7, 0xE1, 0x7F, 
  0xF8, 0xE0, 0x7F, 0x00, 0x00, 0x00, 0x00, 0xA0, 0xAA, 0xAA, 0xFE, 0x07, 
  0x80, 0xC3, 0xF1, 0x70, 0xF8, 0xE0, 0x70, 0x00, 0x00, 0x00, 0x10, 0x52, 
  0x55, 0x55, 0xFF, 0x03, 0x80, 0x83, 0x61, 0xF0, 0xE8, 0xE0, 0x70, 0x00, 
  0x00, 0x00, 0x48, 0x68, 0xAA, 0xAA, 0xFE, 0x07, 0x00, 0x80, 0x73, 0x70, 
  0xE0, 0x60, 0xE0, 0x00, 0x00, 0x00, 0x00, 0x92, 0x94, 0x94, 0xFE, 0x03, 
  0x00, 0xC0, 0x71, 0x60, 0xE0, 0xE0, 0x70, 0x00, 0x00, 0x00, 0x20, 0x00, 
  0x03, 0x03, 0xFF, 0x07, 0x00, 0xC0, 0x71, 0x70, 0xE0, 0xE0, 0x79, 0x00, 
  0x00, 0x00, 0x00, 0xF8, 0xFD, 0xFD, 0xFF, 0x03, 0x00, 0xE0, 0x70, 0x60, 
  0xE0, 0xC0, 0x3F, 0x00, 0x00, 0x00, 0x00, 0xF0, 0xFF, 0xFF, 0xFF, 0x03, 
  0x00, 0xF0, 0x70, 0x70, 0xE0, 0xC0, 0x3F, 0x00, 0x00, 0x00, 0x00, 0xF0, 
  0xFF, 0xFF, 0xFF, 0x07, 0x00, 0x78, 0x70, 0x60, 0xE0, 0xE0, 0x79, 0x00, 
  0x00, 0x00, 0x00, 0xF0, 0xFF, 0xFF, 0xFF, 0x07, 0x00, 0x38, 0x70, 0xF0, 
  0xE0, 0xE0, 0x70, 0x00, 0x00, 0x00, 0x00, 0xF0, 0xFF, 0xFF, 0xFF, 0x03, 
  0x00, 0x1C, 0x70, 0x60, 0xE0, 0x60, 0x60, 0x00, 0x00, 0x00, 0x00, 0xF0, 
  0xFF, 0xFF, 0xFF, 0x03, 0x00, 0x0E, 0x70, 0x60, 0xE0, 0x70, 0xE0, 0x00, 
  0x00, 0x00, 0x00, 0xF0, 0xFF, 0xFF, 0xFF, 0x07, 0x00, 0x0F, 0xF0, 0x70, 
  0xE0, 0xE0, 0xF0, 0x00, 0x00, 0x00, 0x00, 0xF0, 0xFF, 0xFF, 0xFF, 0x03, 
  0x80, 0x07, 0xE0, 0x78, 0xE0, 0xE0, 0x71, 0x00, 0x00, 0x00, 0x00, 0xF0, 
  0xFF, 0xFF, 0xFF, 0x07, 0x80, 0xFF, 0xE1, 0x7F, 0xE0, 0xE0, 0x7F, 0x00, 
  0x00, 0x00, 0x00, 0xF0, 0xFF, 0xFF, 0xFF, 0x03, 0x80, 0xFF, 0xC1, 0x3F, 
  0xE0, 0xC0, 0x3F, 0x00, 0x00, 0x00, 0x00, 0x00, 0x00, 0x00, 0x00, 0x00, 
  0x00, 0x00, 0x00, 0x00, 0x00, 0x00, 0x00, 0x00, 0x00, 0x00, 0x00, 0x00, 
  0x00, 0x00, 0x00, 0x00, 0x00, 0x00, 0x00, 0x00, 0x00, 0x00, 0x00, 0x00, 
  0x00, 0x00, 0x00, 0x00, 0x00, 0x00, 0x00, 0x00, 0x00, 0x00, 0x00, 0x00, 
  0x00, 0x00, 0x00, 0x00, 0x00, 0x00, 0x00, 0x00, 0x00, 0x00, 0x00, 0x00, 
  0x00, 0x00, 0x00, 0x00, 0x00, 0x00, 0x00, 0x00, 0x00, 0x00, 0x00, 0x00, 
  0x00, 0x00, 0x00, 0x00, 0x00, 0x00, 0x00, 0x00, 0x00, 0x00, 0x00, 0x00, 
  0x00, 0x00, 0x00, 0x00, 0x00, 0x00, 0x00, 0x00, 0x00, 0x00, 0x00, 0x00, 
  0x00, 0x00, 0x00, 0x00, 0x00, 0x00, 0x00, 0x00, 0x00, 0x00, 0x00, 0x00, 
  0x00, 0x00, 0x00, 0x00, 0x00, 0x00, 0x00, 0x00, 0x00, 0x00, 0x00, 0x00, 
  0x00, 0x00, 0x00, 0x00, 0x00, 0x00, 0x00, 0x00, 0x00, 0x00, 0x00, 0x00, 
  0x00, 0x00, 0x00, 0x00, 0x00, 0x00, 0x00, 0x00, 0x00, 0x00, 0x00, 0x00, 
  0x00, 0x00, 0x00, 0x00, 0x00, 0x00, 0x00, 0x00, 0x00, 0x00, 0x00, 0x00, 
  0x00, 0x00, 0x00, 0x00, 0x00, 0x00, 0x00, 0x00, 0x00, 0x00, 0x00, 0x00, 
  0x00, 0x00, 0x00, 0x00, 0x00, 0x00, 0x00, 0x00, 0x00, 0x00, 0x00, 0x00, 
  0x00, 0x00, 0x00, 0x00, 0x00, 0x00, 0x00, 0x00, 0x00, 0x00, 0x00, 0x00, 
  0x00, 0x00, 0x00, 0x00, 0x00, 0x00, 0x00, 0x00, 0x00, 0x00, 0x00, 0x00, 
  0x00, 0x00, 0x00, 0x00, 0x00, 0x00, 0x00, 0x00, 0x00, 0x00, 0x00, 0x00, 
  0x00, 0x00, 0x00, 0x00, 0x00, 0x00, 0x00, 0x00, 0x00, 0x00, 0x00, 0x00, 
  0x00, 0x00, 0x00, 0x00, 0x00, 0x00, 0x00, 0x00, 0x00, 0x00, 0x00, 0x00, 
  0x00, 0x00, 0x00, 0x00, 0x00, 0x00, 0x00, 0x00, 0x00, 0x00, 0x00, 0x00, 
  0x00, 0x00, 0x00, 0x00, 0x00, 0x00, 0x00, 0x00, 0x00, 0x00, 0x00, 0x00, 
  0x00, 0x00, 0x00, 0x00, 0x00, 0x00, 0x00, 0x00, 0x00, 0x00, 0x00, 0x00, 
  0x00, 0x00, 0x00, 0x00, 0x00, 0x00, 0x00, 0x00, 0x00, 0x00, 0x00, 0x00, 
  0x00, 0x00, 0x00, 0x00, 0x00, 0x00, 0x00, 0x00, 0x00, 0x00, 0x00, 0x00, 
  0x00, 0x00, 0x00, 0x00, 0x00, 0x00, 0x00, 0x00, 0x00, 0x00, 0x00, 0x00, 
  0x00, 0x00, 0x00, 0x00, 0x00, 0x00, 0x00, 0x00, 0x00, 0x00, 0x00, 0x00, 
  0x00, 0x00, 0x00, 0x00, 0x00, 0x00, 0x00, 0x00, 0x00, 0x00, 0x00, 0x00, 
  0x00, 0x00, 0x00, 0x00, 0x00, 0x00, 0x00, 0x00, 0x00, 0x00, 0x00, 0x00, 
  0x00, 0x00, 0x00, 0x00, 0x00, 0x00, 0x00, 0x00, 0x00, 0x00, 0x00, 0x00, 
  0x00, 0x00, 0x00, 0x00, 0x00, 0x00, 0x00, 0x00, 0x00, 0x00, 0x00, 0x00, 
  };
