#define logo_1_9_width 144
#define logo_1_9_height 128
static unsigned char logo_1_9_bits[] = {
  0x00, 0x00, 0x00, 0x00, 0x00, 0x00, 0x00, 0x00, 0x00, 0x00, 0x00, 0x00, 
  0x00, 0x00, 0x00, 0x00, 0x00, 0x00, 0x00, 0x00, 0x00, 0x00, 0x00, 0x00, 
  0x00, 0x00, 0x00, 0x00, 0x00, 0x00, 0x00, 0x00, 0x00, 0x00, 0x00, 0x00, 
  0x00, 0x00, 0x00, 0x00, 0x00, 0x00, 0x00, 0x00, 0x00, 0x00, 0x00, 0x00, 
  0x00, 0x00, 0x00, 0x00, 0x00, 0x00, 0x00, 0x00, 0x00, 0x00, 0x00, 0x00, 
  0x00, 0x00, 0x00, 0x00, 0x00, 0x00, 0x00, 0x00, 0x00, 0x00, 0x00, 0x00, 
  0x00, 0x00, 0x00, 0x00, 0x00, 0x00, 0x00, 0x00, 0x00, 0x00, 0x00, 0x00, 
  0x00, 0x00, 0x00, 0x00, 0x00, 0x00, 0x00, 0x00, 0x00, 0x00, 0x00, 0x00, 
  0x00, 0x00, 0x00, 0x00, 0x00, 0x00, 0x00, 0x00, 0x00, 0x00, 0x00, 0x00, 
  0x00, 0x00, 0x00, 0x00, 0x00, 0x00, 0x00, 0x00, 0x00, 0x00, 0x00, 0x00, 
  0x00, 0x00, 0x00, 0x00, 0x00, 0x00, 0x00, 0x00, 0x00, 0x00, 0x00, 0x00, 
  0x00, 0x00, 0x00, 0x00, 0x00, 0x00, 0x00, 0x00, 0x00, 0x00, 0x00, 0x00, 
  0x00, 0x00, 0x00, 0x00, 0x00, 0x00, 0x00, 0x00, 0x00, 0x00, 0x00, 0x00, 
  0x00, 0x00, 0x00, 0x00, 0x00, 0x00, 0x00, 0x00, 0x00, 0x00, 0x00, 0x00, 
  0x00, 0x00, 0x00, 0x00, 0x00, 0x00, 0x00, 0x00, 0x00, 0x00, 0x00, 0x00, 
  0x00, 0x00, 0x00, 0x00, 0x00, 0x00, 0x00, 0x00, 0x00, 0x00, 0x00, 0x00, 
  0x00, 0x00, 0x00, 0x00, 0x00, 0x00, 0x00, 0x00, 0x00, 0x00, 0x00, 0x00, 
  0x00, 0x00, 0x00, 0x00, 0x00, 0x00, 0x00, 0x00, 0x00, 0x00, 0x00, 0x00, 
  0x00, 0x00, 0x00, 0x00, 0x00, 0x00, 0x00, 0x00, 0x00, 0x00, 0x00, 0x00, 
  0x00, 0x00, 0x00, 0x00, 0x00, 0x00, 0x00, 0x00, 0x00, 0x00, 0x00, 0x00, 
  0x00, 0x00, 0x00, 0x00, 0x00, 0x00, 0x00, 0x00, 0x00, 0x00, 0x00, 0x00, 
  0x00, 0x00, 0x00, 0x00, 0x00, 0x00, 0x00, 0x00, 0x00, 0x00, 0x00, 0x00, 
  0x00, 0x00, 0x00, 0x00, 0x00, 0x00, 0x00, 0x00, 0x00, 0x00, 0x00, 0x00, 
  0x00, 0x00, 0x00, 0x00, 0x00, 0x00, 0x00, 0x00, 0x00, 0x00, 0x00, 0x00, 
  0x00, 0x00, 0x00, 0x00, 0x00, 0x00, 0x00, 0x00, 0x00, 0x00, 0x00, 0x00, 
  0x00, 0x00, 0x00, 0x00, 0x00, 0x00, 0x00, 0x00, 0x00, 0x00, 0x00, 0x00, 
  0x00, 0x00, 0x00, 0x00, 0x00, 0x00, 0x00, 0x00, 0x00, 0x00, 0x00, 0x00, 
  0x00, 0x00, 0x00, 0x00, 0x00, 0x00, 0x00, 0x00, 0x00, 0x00, 0x00, 0x00, 
  0x00, 0x00, 0x00, 0x00, 0x00, 0x00, 0x00, 0x00, 0x00, 0x00, 0x00, 0x00, 
  0x00, 0x00, 0x00, 0x00, 0x00, 0x00, 0x00, 0x00, 0x00, 0x00, 0x00, 0x00, 
  0x00, 0x00, 0x00, 0x00, 0x00, 0x00, 0x00, 0x00, 0x00, 0x00, 0x00, 0x00, 
  0x00, 0x00, 0x00, 0x00, 0x00, 0x00, 0x00, 0x00, 0x00, 0x00, 0x00, 0x00, 
  0x00, 0x00, 0x00, 0x00, 0x00, 0x00, 0x00, 0x00, 0x00, 0x00, 0x00, 0x00, 
  0x00, 0x00, 0x00, 0x00, 0x00, 0x00, 0x00, 0x00, 0x00, 0x00, 0x00, 0x00, 
  0x00, 0x00, 0x00, 0x00, 0x00, 0x00, 0x00, 0x00, 0x00, 0x00, 0x00, 0x00, 
  0x00, 0x00, 0x00, 0x00, 0x00, 0x00, 0x00, 0x00, 0x00, 0x00, 0x00, 0x00, 
  0x00, 0x00, 0x00, 0x00, 0x00, 0x00, 0x00, 0x00, 0x00, 0x00, 0x00, 0x00, 
  0x00, 0x00, 0x00, 0x00, 0x00, 0x00, 0x00, 0x00, 0x00, 0x00, 0x00, 0x00, 
  0x00, 0x00, 0x00, 0x00, 0x00, 0x00, 0x00, 0x00, 0x00, 0x00, 0x00, 0x00, 
  0x00, 0x00, 0x00, 0x00, 0x00, 0x00, 0x00, 0x00, 0x00, 0x00, 0x00, 0x00, 
  0x00, 0x00, 0x00, 0x00, 0x00, 0x00, 0x00, 0x00, 0x00, 0x00, 0x00, 0x00, 
  0x00, 0x00, 0x00, 0x00, 0x00, 0x00, 0x00, 0x00, 0x00, 0x00, 0x00, 0x00, 
  0x00, 0x00, 0x00, 0x00, 0x00, 0x00, 0x00, 0x00, 0x00, 0x00, 0x00, 0x00, 
  0x00, 0x00, 0x00, 0x00, 0x00, 0x00, 0x00, 0x00, 0x00, 0x00, 0x00, 0x00, 
  0x00, 0x00, 0x00, 0x00, 0x00, 0x00, 0x00, 0x00, 0x00, 0x00, 0x00, 0x00, 
  0x00, 0x00, 0x00, 0x00, 0x00, 0x00, 0x00, 0x00, 0x00, 0x00, 0x00, 0x00, 
  0x00, 0x00, 0x00, 0x00, 0x00, 0x00, 0x00, 0x00, 0x00, 0x00, 0x00, 0x00, 
  0x00, 0x00, 0x00, 0x00, 0x00, 0x00, 0x00, 0x00, 0x00, 0x00, 0x00, 0x00, 
  0x00, 0x00, 0x00, 0x00, 0x00, 0x00, 0x00, 0x00, 0x00, 0x00, 0x00, 0x00, 
  0x00, 0x00, 0x00, 0x00, 0x00, 0x00, 0x00, 0x00, 0x00, 0x00, 0x00, 0x00, 
  0x00, 0x00, 0x00, 0x00, 0x00, 0x00, 0x00, 0x00, 0x00, 0x00, 0x00, 0x00, 
  0x00, 0x00, 0x00, 0x00, 0x00, 0x00, 0x00, 0x00, 0x00, 0x00, 0x00, 0x00, 
  0x00, 0x00, 0x00, 0x00, 0x00, 0x00, 0x00, 0x4A, 0xA2, 0x24, 0x24, 0x02, 
  0x00, 0x00, 0x00, 0x00, 0xF0, 0x07, 0x00, 0x02, 0x00, 0x02, 0x24, 0x00, 
  0x00, 0xFF, 0x7E, 0xFF, 0xFF, 0x07, 0x00, 0x00, 0x00, 0x00, 0xFE, 0x3F, 
  0x80, 0x0F, 0xC0, 0x07, 0x7C, 0x00, 0x00, 0xFD, 0xFF, 0xFB, 0xFB, 0x07, 
  0x00, 0x00, 0x00, 0x00, 0xFF, 0x7F, 0x80, 0x07, 0xC0, 0x07, 0x7C, 0x00, 
  0x00, 0xDF, 0xFF, 0xBF, 0xBF, 0x07, 0x00, 0x00, 0x00, 0x80, 0xFF, 0xFF, 
  0xC0, 0x07, 0xC0, 0x07, 0x7C, 0x00, 0x00, 0xFF, 0xEF, 0xFF, 0xFF, 0x07, 
  0x00, 0x00, 0x00, 0x80, 0x1F, 0xFC, 0x80, 0x07, 0xC0, 0x07, 0x7C, 0x00, 
  0x00, 0xFB, 0xF7, 0xFF, 0xFB, 0x07, 0x00, 0x00, 0x00, 0xC0, 0x0F, 0xF8, 
  0x81, 0x07, 0xC0, 0x07, 0x7C, 0x00, 0x00, 0xFE, 0xFF, 0xBF, 0xEF, 0x06, 
  0x00, 0x00, 0x00, 0xC0, 0x07, 0xF0, 0xC1, 0x0F, 0xC0, 0x07, 0x7C, 0x00, 
  0x00, 0x7F, 0xFF, 0xF9, 0xFF, 0x07, 0x00, 0x00, 0x00, 0xE0, 0x03, 0xE0, 
  0x83, 0x07, 0xC0, 0x07, 0x7C, 0x00, 0x00, 0xFF, 0x7D, 0xFF, 0xBF, 0x07, 
  0x00, 0x00, 0x00, 0xE0, 0x03, 0xE0, 0x83, 0x0F, 0xC0, 0x07, 0x7C, 0x00, 
  0x00, 0xBE, 0xFD, 0xFB, 0xFF, 0x0F, 0x00, 0x00, 0x00, 0xE0, 0x03, 0x00, 
  0xC0, 0x07, 0xC0, 0x07, 0x7C, 0x00, 0x00, 0xFF, 0xEF, 0xBF, 0xE6, 0x05, 
  0x00, 0x00, 0x00, 0xE0, 0x01, 0x00, 0x80, 0x07, 0xC0, 0x07, 0x7C, 0x00, 
  0x00, 0xFF, 0x67, 0x92, 0x69, 0x22, 0x0A, 0x00, 0x00, 0xE0, 0x01, 0x00, 
  0x80, 0x0F, 0xC0, 0x07, 0x7C, 0x00, 0x00, 0xEF, 0x0F, 0x49, 0x92, 0x04, 
  0x00, 0x00, 0x00, 0xE0, 0x03, 0x00, 0x80, 0xFF, 0xFF, 0x07, 0x7C, 0x00, 
  0x00, 0xFD, 0x25, 0x52, 0x52, 0x02, 0x22, 0x00, 0x00, 0xE0, 0x01, 0x00, 
  0x80, 0xFF, 0xFF, 0x07, 0x7C, 0x00, 0x00, 0xFF, 0x97, 0xA6, 0x65, 0x09, 
  0x04, 0x00, 0x00, 0xE0, 0x03, 0x00, 0x80, 0xFF, 0xFF, 0x07, 0x7C, 0x00, 
  0x00, 0xFF, 0x6B, 0x39, 0x9C, 0x15, 0x02, 0x00, 0x00, 0xE0, 0x01, 0x00, 
  0xC0, 0xFF, 0xFF, 0x07, 0x7C, 0x00, 0x00, 0xD7, 0x47, 0x44, 0x22, 0x82, 
  0x00, 0x00, 0x00, 0xE0, 0x01, 0x00, 0x80, 0x0F, 0xC0, 0x07, 0x7C, 0x00, 
  0x00, 0xEF, 0x57, 0x54, 0x29, 0x42, 0x00, 0x00, 0x00, 0xE0, 0x03, 0x00, 
  0x80, 0x07, 0xC0, 0x07, 0x7C, 0x00, 0x00, 0xFF, 0x6F, 0x29, 0x94, 0x06, 
  0x14, 0x00, 0x00, 0xE0, 0x01, 0x00, 0x80, 0x0F, 0xC0, 0x07, 0x7C, 0x00, 
  0x00, 0xFF, 0x95, 0xA6, 0x65, 0x19, 0x02, 0x00, 0x00, 0xE0, 0x03, 0x00, 
  0x80, 0x07, 0xC0, 0x07, 0x7C, 0x00, 0x00, 0xFE, 0x27, 0x52, 0x49, 0x04, 
  0x08, 0x00, 0x00, 0xE0, 0x03, 0xE0, 0xC3, 0x0F, 0xC0, 0x07, 0x7C, 0x00, 
  0x00, 0x7F, 0x27, 0x45, 0x44, 0x84, 0x04, 0x00, 0x00, 0xE0, 0x03, 0xE0, 
  0x81, 0x0F, 0xC0, 0x07, 0x7C, 0x00, 0x00, 0xFF, 0x67, 0x16, 0x00, 0x50, 
  0xD9, 0xFF, 0x01, 0xC0, 0x07, 0xF0, 0x81, 0x07, 0xC0, 0x07, 0x7C, 0x00, 
  0x00, 0xFB, 0x97, 0x09, 0x00, 0x60, 0xAA, 0xFF, 0x01, 0xC0, 0x0F, 0xF0, 
  0xC1, 0x07, 0xC0, 0x07, 0x7C, 0x00, 0x00, 0xDF, 0x47, 0x12, 0x00, 0xA8, 
  0xD5, 0xFF, 0x01, 0xC0, 0x1F, 0xFC, 0x80, 0x07, 0xC0, 0x07, 0x7C, 0x00, 
  0x00, 0xFB, 0x4B, 0x12, 0x00, 0x68, 0xD6, 0xFF, 0x01, 0x80, 0xFF, 0xFF, 
  0x80, 0x0F, 0xC0, 0x07, 0x7C, 0x00, 0x00, 0xFE, 0xAF, 0x05, 0x00, 0x90, 
  0xE9, 0xFF, 0x01, 0x00, 0xFF, 0x7F, 0x80, 0x07, 0xC0, 0x07, 0x7C, 0x00, 
  0x00, 0xFF, 0x35, 0x1C, 0x00, 0x20, 0xE4, 0xFF, 0x01, 0x00, 0xFE, 0x3F, 
  0xC0, 0x07, 0xC0, 0x07, 0x7C, 0x00, 0x00, 0xBF, 0x47, 0x02, 0x00, 0x90, 
  0xD9, 0xFF, 0x01, 0x00, 0xF8, 0x0F, 0x80, 0x07, 0xC0, 0x07, 0x7C, 0x00, 
  0x00, 0xBF, 0x9F, 0x14, 0x00, 0xA0, 0xD2, 0xFF, 0x01, 0x00, 0x00, 0x00, 
  0x00, 0x00, 0x00, 0x00, 0x00, 0x00, 0x00, 0xFF, 0x23, 0x03, 0x00, 0x50, 
  0xCD, 0xFF, 0x01, 0x00, 0x00, 0x00, 0x00, 0x00, 0x00, 0x00, 0x00, 0x00, 
  0x00, 0xFE, 0xA7, 0x0A, 0x00, 0xA8, 0xD6, 0xFF, 0x01, 0x00, 0x00, 0x00, 
  0x00, 0x00, 0x00, 0x00, 0x00, 0x00, 0x00, 0xFB, 0x97, 0x14, 0x00, 0x80, 
  0xE9, 0xFF, 0x01, 0x00, 0x00, 0x00, 0x00, 0x00, 0x00, 0x00, 0x00, 0x00, 
  0x00, 0xDF, 0x23, 0x09, 0x00, 0x50, 0xE4, 0xFF, 0x01, 0x00, 0x00, 0x00, 
  0x00, 0x00, 0x00, 0x00, 0x00, 0x00, 0x00, 0xFB, 0x9F, 0x16, 0x00, 0xA0, 
  0x99, 0xFF, 0x01, 0x00, 0x00, 0x00, 0x00, 0x00, 0x00, 0x00, 0x00, 0x00, 
  0x00, 0xFF, 0x63, 0x01, 0x00, 0x90, 0xE5, 0xFF, 0x01, 0x00, 0x00, 0x00, 
  0x00, 0x00, 0x00, 0x00, 0x00, 0x00, 0x00, 0x00, 0x00, 0xA4, 0xA5, 0x2C, 
  0xDA, 0xFF, 0x01, 0x00, 0x50, 0x00, 0x20, 0x00, 0x00, 0x00, 0x02, 0x00, 
  0x00, 0x00, 0x00, 0x64, 0x56, 0x95, 0xD1, 0xFF, 0x01, 0x00, 0xFC, 0x01, 
  0xFE, 0x01, 0x3E, 0xE0, 0x1F, 0x00, 0x00, 0x00, 0x50, 0x80, 0x69, 0x6A, 
  0xE5, 0xFF, 0x01, 0x00, 0xFF, 0x03, 0xFF, 0x07, 0x3F, 0xF0, 0x3F, 0x00, 
  0x00, 0x00, 0x20, 0x40, 0xA4, 0xB8, 0xEA, 0xFF, 0x01, 0x00, 0xCF, 0x87, 
  0xCF, 0x07, 0x3F, 0xF0, 0x7C, 0x00, 0x00, 0x00, 0x00, 0x91, 0x59, 0x45, 
  0xD5, 0xFF, 0x01, 0x00, 0x07, 0x87, 0x07, 0x87, 0x3F, 0x78, 0x70, 0x00, 
  0x00, 0x00, 0x40, 0x68, 0x4A, 0xAA, 0xC5, 0xFF, 0x01, 0x80, 0x03, 0x8F, 
  0x03, 0x0F, 0x39, 0x38, 0x70, 0x00, 0x00, 0x00, 0x00, 0x81, 0x95, 0x56, 
  0xEA, 0xFF, 0x01, 0x00, 0x00, 0xCF, 0x03, 0x0F, 0x3C, 0x38, 0xF0, 0x00, 
  0x00, 0x00, 0x00, 0x60, 0x5A, 0x85, 0xE5, 0xFF, 0x01, 0x00, 0x00, 0x8F, 
  0x03, 0x0F, 0x38, 0x78, 0x70, 0x00, 0x00, 0x00, 0x88, 0x84, 0xA4, 0x6A, 
  0xD1, 0xFF, 0x01, 0x00, 0x00, 0x87, 0x03, 0x0F, 0x38, 0x70, 0x78, 0x00, 
  0x00, 0x00, 0x00, 0x24, 0x25, 0x49, 0xD2, 0xFF, 0x01, 0x00, 0x80, 0xC7, 
  0x03, 0x0F, 0x3C, 0xF0, 0x3F, 0x00, 0x00, 0x00, 0x00, 0xC0, 0xFF, 0xFF, 
  0xFF, 0xFF, 0x01, 0x00, 0xC0, 0x83, 0x03, 0x0F, 0x38, 0xE0, 0x1F, 0x00, 
  0x00, 0x00, 0x00, 0xE0, 0xFF, 0xFF, 0xFF, 0xFF, 0x01, 0x00, 0xE0, 0x81, 
  0x03, 0x0F, 0x3C, 0xF0, 0x3F, 0x00, 0x00, 0x00, 0x00, 0xC0, 0xFF, 0xFF, 
  0xFF, 0xFF, 0x01, 0x00, 0xF0, 0x81, 0x03, 0x0F, 0x38, 0xF0, 0x78, 0x00, 
  0x00, 0x00, 0x00, 0xC0, 0xFF, 0xFF, 0xFF, 0xFF, 0x01, 0x00, 0xF8, 0x80, 
  0x03, 0x0F, 0x3C, 0x78, 0xF0, 0x00, 0x00, 0x00, 0x00, 0xE0, 0xFF, 0xFF, 
  0xFF, 0xFF, 0x01, 0x00, 0x78, 0xC0, 0x03, 0x0F, 0x38, 0x38, 0x70, 0x00, 
  0x00, 0x00, 0x00, 0xE0, 0xFF, 0xFF, 0xFF, 0xFF, 0x01, 0x00, 0x3C, 0x80, 
  0x03, 0x0F, 0x38, 0x38, 0xE0, 0x00, 0x00, 0x00, 0x00, 0xC0, 0xFF, 0xFF, 
  0xFF, 0xFF, 0x01, 0x00, 0x1E, 0x80, 0x03, 0x07, 0x3C, 0x38, 0x70, 0x00, 
  0x00, 0x00, 0x00, 0xC0, 0xFF, 0xFF, 0xFF, 0xFF, 0x01, 0x00, 0x1F, 0x80, 
  0x87, 0x07, 0x3C, 0x78, 0xF0, 0x00, 0x00, 0x00, 0x00, 0xE0, 0xFF, 0xFF, 
  0xFF, 0xFF, 0x01, 0x00, 0xAF, 0x82, 0x8F, 0x07, 0x38, 0xF8, 0x7C, 0x00, 
  0x00, 0x00, 0x00, 0xC0, 0xFF, 0xFF, 0xFF, 0xFF, 0x01, 0x80, 0xFF, 0x0F, 
  0xFF, 0x03, 0x38, 0xF0, 0x7F, 0x00, 0x00, 0x00, 0x00, 0xE0, 0xFF, 0xFF, 
  0xFF, 0xFF, 0x01, 0x80, 0xFF, 0x0F, 0xFE, 0x01, 0x38, 0xE0, 0x1F, 0x00, 
  0x00, 0x00, 0x00, 0x00, 0x84, 0x41, 0x18, 0x84, 0x00, 0x00, 0x08, 0x00, 
  0x78, 0x00, 0x00, 0x80, 0x07, 0x00, 0x00, 0x00, 0x00, 0x00, 0x00, 0x00, 
  0x00, 0x00, 0x00, 0x00, 0x00, 0x00, 0x00, 0x00, 0x00, 0x00, 0x00, 0x00, 
  0x00, 0x00, 0x00, 0x00, 0x00, 0x00, 0x00, 0x00, 0x00, 0x00, 0x00, 0x00, 
  0x00, 0x00, 0x00, 0x00, 0x00, 0x00, 0x00, 0x00, 0x00, 0x00, 0x00, 0x00, 
  0x00, 0x00, 0x00, 0x00, 0x00, 0x00, 0x00, 0x00, 0x00, 0x00, 0x00, 0x00, 
  0x00, 0x00, 0x00, 0x00, 0x00, 0x00, 0x00, 0x00, 0x00, 0x00, 0x00, 0x00, 
  0x00, 0x00, 0x00, 0x00, 0x00, 0x00, 0x00, 0x00, 0x00, 0x00, 0x00, 0x00, 
  0x00, 0x00, 0x00, 0x00, 0x00, 0x00, 0x00, 0x00, 0x00, 0x00, 0x00, 0x00, 
  0x00, 0x00, 0x00, 0x00, 0x00, 0x00, 0x00, 0x00, 0x00, 0x00, 0x00, 0x00, 
  0x00, 0x00, 0x00, 0x00, 0x00, 0x00, 0x00, 0x00, 0x00, 0x00, 0x00, 0x00, 
  0x00, 0x00, 0x00, 0x00, 0x00, 0x00, 0x00, 0x00, 0x00, 0x00, 0x00, 0x00, 
  0x00, 0x00, 0x00, 0x00, 0x00, 0x00, 0x00, 0x00, 0x00, 0x00, 0x00, 0x00, 
  0x00, 0x00, 0x00, 0x00, 0x00, 0x00, 0x00, 0x00, 0x00, 0x00, 0x00, 0x00, 
  0x00, 0x00, 0x00, 0x00, 0x00, 0x00, 0x00, 0x00, 0x00, 0x00, 0x00, 0x00, 
  0x00, 0x00, 0x00, 0x00, 0x00, 0x00, 0x00, 0x00, 0x00, 0x00, 0x00, 0x00, 
  0x00, 0x00, 0x00, 0x00, 0x00, 0x00, 0x00, 0x00, 0x00, 0x00, 0x00, 0x00, 
  0x00, 0x00, 0x00, 0x00, 0x00, 0x00, 0x00, 0x00, 0x00, 0x00, 0x00, 0x00, 
  0x00, 0x00, 0x00, 0x00, 0x00, 0x00, 0x00, 0x00, 0x00, 0x00, 0x00, 0x00, 
  0x00, 0x00, 0x00, 0x00, 0x00, 0x00, 0x00, 0x00, 0x00, 0x00, 0x00, 0x00, 
  0x00, 0x00, 0x00, 0x00, 0x00, 0x00, 0x00, 0x00, 0x00, 0x00, 0x00, 0x00, 
  0x00, 0x00, 0x00, 0x00, 0x00, 0x00, 0x00, 0x00, 0x00, 0x00, 0x00, 0x00, 
  0x00, 0x00, 0x00, 0x00, 0x00, 0x00, 0x00, 0x00, 0x00, 0x00, 0x00, 0x00, 
  0x00, 0x00, 0x00, 0x00, 0x00, 0x00, 0x00, 0x00, 0x00, 0x00, 0x00, 0x00, 
  0x00, 0x00, 0x00, 0x00, 0x00, 0x00, 0x00, 0x00, 0x00, 0x00, 0x00, 0x00, 
  0x00, 0x00, 0x00, 0x00, 0x00, 0x00, 0x00, 0x00, 0x00, 0x00, 0x00, 0x00, 
  0x00, 0x00, 0x00, 0x00, 0x00, 0x00, 0x00, 0x00, 0x00, 0x00, 0x00, 0x00, 
  0x00, 0x00, 0x00, 0x00, 0x00, 0x00, 0x00, 0x00, 0x00, 0x00, 0x00, 0x00, 
  0x00, 0x00, 0x00, 0x00, 0x00, 0x00, 0x00, 0x00, 0x00, 0x00, 0x00, 0x00, 
  0x00, 0x00, 0x00, 0x00, 0x00, 0x00, 0x00, 0x00, 0x00, 0x00, 0x00, 0x00, 
  0x00, 0x00, 0x00, 0x00, 0x00, 0x00, 0x00, 0x00, 0x00, 0x00, 0x00, 0x00, 
  0x00, 0x00, 0x00, 0x00, 0x00, 0x00, 0x00, 0x00, 0x00, 0x00, 0x00, 0x00, 
  0x00, 0x00, 0x00, 0x00, 0x00, 0x00, 0x00, 0x00, 0x00, 0x00, 0x00, 0x00, 
  0x00, 0x00, 0x00, 0x00, 0x00, 0x00, 0x00, 0x00, 0x00, 0x00, 0x00, 0x00, 
  0x00, 0x00, 0x00, 0x00, 0x00, 0x00, 0x00, 0x00, 0x00, 0x00, 0x00, 0x00, 
  0x00, 0x00, 0x00, 0x00, 0x00, 0x00, 0x00, 0x00, 0x00, 0x00, 0x00, 0x00, 
  0x00, 0x00, 0x00, 0x00, 0x00, 0x00, 0x00, 0x00, 0x00, 0x00, 0x00, 0x00, 
  0x00, 0x00, 0x00, 0x00, 0x00, 0x00, 0x00, 0x00, 0x00, 0x00, 0x00, 0x00, 
  0x00, 0x00, 0x00, 0x00, 0x00, 0x00, 0x00, 0x00, 0x00, 0x00, 0x00, 0x00, 
  0x00, 0x00, 0x00, 0x00, 0x00, 0x00, 0x00, 0x00, 0x00, 0x00, 0x00, 0x00, 
  0x00, 0x00, 0x00, 0x00, 0x00, 0x00, 0x00, 0x00, 0x00, 0x00, 0x00, 0x00, 
  0x00, 0x00, 0x00, 0x00, 0x00, 0x00, 0x00, 0x00, 0x00, 0x00, 0x00, 0x00, 
  0x00, 0x00, 0x00, 0x00, 0x00, 0x00, 0x00, 0x00, 0x00, 0x00, 0x00, 0x00, 
  0x00, 0x00, 0x00, 0x00, 0x00, 0x00, 0x00, 0x00, 0x00, 0x00, 0x00, 0x00, 
  0x00, 0x00, 0x00, 0x00, 0x00, 0x00, 0x00, 0x00, 0x00, 0x00, 0x00, 0x00, 
  0x00, 0x00, 0x00, 0x00, 0x00, 0x00, 0x00, 0x00, 0x00, 0x00, 0x00, 0x00, 
  0x00, 0x00, 0x00, 0x00, 0x00, 0x00, 0x00, 0x00, 0x00, 0x00, 0x00, 0x00, 
  0x00, 0x00, 0x00, 0x00, 0x00, 0x00, 0x00, 0x00, 0x00, 0x00, 0x00, 0x00, 
  0x00, 0x00, 0x00, 0x00, 0x00, 0x00, 0x00, 0x00, 0x00, 0x00, 0x00, 0x00, 
  0x00, 0x00, 0x00, 0x00, 0x00, 0x00, 0x00, 0x00, 0x00, 0x00, 0x00, 0x00, 
  0x00, 0x00, 0x00, 0x00, 0x00, 0x00, 0x00, 0x00, 0x00, 0x00, 0x00, 0x00, 
  0x00, 0x00, 0x00, 0x00, 0x00, 0x00, 0x00, 0x00, 0x00, 0x00, 0x00, 0x00, 
  0x00, 0x00, 0x00, 0x00, 0x00, 0x00, 0x00, 0x00, 0x00, 0x00, 0x00, 0x00, 
  0x00, 0x00, 0x00, 0x00, 0x00, 0x00, 0x00, 0x00, 0x00, 0x00, 0x00, 0x00, 
  };
