#define nametag_2_0_width 200
#define nametag_2_0_height 96
static unsigned char nametag_2_0_bits[] = {
  0x00, 0x00, 0x00, 0x00, 0x00, 0x00, 0x00, 0x00, 0x00, 0x00, 0x00, 0x00, 
  0x00, 0x00, 0x00, 0x00, 0x00, 0x00, 0x00, 0x00, 0x00, 0x00, 0x00, 0x00, 
  0x00, 0x00, 0x00, 0x00, 0x00, 0x00, 0x00, 0x00, 0x00, 0x00, 0x00, 0x00, 
  0x00, 0x00, 0x00, 0x00, 0x00, 0x00, 0x00, 0x00, 0x00, 0x00, 0x00, 0x00, 
  0x00, 0x00, 0x00, 0x00, 0x00, 0x00, 0x00, 0x00, 0x00, 0x00, 0x00, 0x00, 
  0x00, 0x00, 0x00, 0x00, 0x00, 0x00, 0x00, 0x00, 0x00, 0x00, 0x00, 0x00, 
  0x00, 0x00, 0x00, 0x00, 0x00, 0x00, 0x00, 0x00, 0x00, 0x00, 0x00, 0x00, 
  0x00, 0x00, 0x00, 0x00, 0x00, 0x00, 0x00, 0x00, 0x00, 0x00, 0x00, 0x00, 
  0x00, 0x00, 0x00, 0x00, 0x00, 0x00, 0x00, 0x00, 0x00, 0x00, 0x00, 0x00, 
  0x00, 0x00, 0x00, 0x00, 0x00, 0x00, 0x00, 0x00, 0x00, 0x00, 0x00, 0x00, 
  0x00, 0x00, 0x00, 0x00, 0x00, 0x00, 0x00, 0x00, 0x00, 0x00, 0x00, 0x00, 
  0x00, 0x00, 0x00, 0x00, 0x00, 0x00, 0x00, 0x00, 0x00, 0x00, 0x00, 0x00, 
  0x00, 0x00, 0x00, 0x00, 0x00, 0x00, 0x00, 0x00, 0x00, 0x00, 0x00, 0x00, 
  0x00, 0x00, 0x00, 0x00, 0x00, 0x00, 0x00, 0x00, 0x00, 0x00, 0x00, 0x00, 
  0x00, 0x00, 0x00, 0x00, 0x00, 0x00, 0x00, 0x00, 0x00, 0x00, 0x00, 0x00, 
  0x00, 0x00, 0x00, 0x00, 0x00, 0x00, 0x00, 0x00, 0x00, 0x00, 0x00, 0x00, 
  0x00, 0x00, 0x00, 0x00, 0x00, 0x00, 0x00, 0x00, 0x00, 0x00, 0x00, 0x00, 
  0x00, 0x00, 0x00, 0x00, 0x00, 0x00, 0x00, 0x00, 0x00, 0x00, 0x00, 0x00, 
  0x00, 0x00, 0x00, 0x00, 0x00, 0x00, 0x00, 0x00, 0x00, 0x00, 0x00, 0x00, 
  0x00, 0x00, 0x00, 0x00, 0x00, 0x00, 0x00, 0x00, 0x00, 0x00, 0x00, 0x00, 
  0x00, 0x00, 0x00, 0x00, 0x00, 0x00, 0x00, 0x00, 0x00, 0x00, 0x00, 0x00, 
  0x00, 0x00, 0x00, 0x00, 0x00, 0x00, 0x00, 0x00, 0x00, 0x00, 0x00, 0x00, 
  0x00, 0x00, 0x00, 0x00, 0x00, 0x00, 0x00, 0x00, 0x00, 0x00, 0x00, 0x00, 
  0x00, 0x00, 0x00, 0x00, 0x00, 0x00, 0x00, 0x00, 0x00, 0x00, 0x00, 0x00, 
  0x00, 0x00, 0x00, 0x00, 0x00, 0x00, 0x00, 0x00, 0x00, 0x00, 0x00, 0x00, 
  0x00, 0x00, 0x00, 0x00, 0x00, 0x00, 0x00, 0x00, 0x00, 0x00, 0x00, 0x00, 
  0x00, 0x00, 0x00, 0x00, 0x00, 0x00, 0x00, 0x00, 0x00, 0x00, 0x00, 0x00, 
  0x00, 0x00, 0x00, 0x00, 0x00, 0x00, 0x00, 0x00, 0x00, 0x00, 0x00, 0x00, 
  0x00, 0x00, 0x00, 0x00, 0x00, 0x00, 0x00, 0x00, 0x00, 0x00, 0x00, 0x00, 
  0x00, 0x00, 0x00, 0x00, 0x00, 0x00, 0x00, 0x00, 0x00, 0x00, 0x00, 0x00, 
  0x00, 0x00, 0x00, 0x00, 0x00, 0x00, 0x00, 0x00, 0x00, 0x00, 0x00, 0x00, 
  0x00, 0x00, 0x00, 0x00, 0x00, 0x00, 0x00, 0x00, 0x00, 0x00, 0x00, 0x00, 
  0x00, 0x00, 0x00, 0x00, 0x00, 0x00, 0x00, 0x00, 0x00, 0x00, 0x00, 0x00, 
  0x00, 0x00, 0x00, 0x00, 0x00, 0x00, 0x00, 0x00, 0x00, 0x00, 0x00, 0x00, 
  0x00, 0x00, 0x00, 0x00, 0x00, 0x00, 0x00, 0x00, 0x00, 0x00, 0x00, 0x00, 
  0x00, 0x00, 0x00, 0x00, 0x00, 0x00, 0x00, 0x00, 0x00, 0x00, 0x00, 0x00, 
  0x00, 0x00, 0x00, 0x00, 0x00, 0x00, 0x00, 0x00, 0x00, 0x00, 0x00, 0x00, 
  0x00, 0x00, 0x00, 0x00, 0x00, 0x00, 0x00, 0x00, 0x00, 0x00, 0x00, 0x00, 
  0x00, 0xE0, 0x01, 0x00, 0x00, 0x00, 0x00, 0x00, 0x00, 0x00, 0x00, 0x00, 
  0x00, 0x00, 0x00, 0x00, 0x00, 0x00, 0x00, 0x00, 0x80, 0x03, 0x38, 0xC0, 
  0x01, 0x00, 0xC0, 0x00, 0x00, 0x00, 0x00, 0x00, 0x00, 0x3C, 0xC0, 0x01, 
  0x1E, 0x00, 0x00, 0x00, 0x00, 0x00, 0x00, 0x00, 0x00, 0x80, 0x07, 0x3C, 
  0xC0, 0x01, 0x00, 0xC0, 0x01, 0x00, 0x00, 0x00, 0x00, 0x00, 0x38, 0xC0, 
  0x01, 0x1E, 0x00, 0x00, 0x00, 0x00, 0x00, 0x00, 0x00, 0x00, 0x80, 0x03, 
  0x3C, 0xE0, 0x01, 0x00, 0xE0, 0xC0, 0x03, 0x00, 0x00, 0x00, 0x00, 0x38, 
  0xE0, 0x03, 0x0E, 0x00, 0x00, 0x00, 0x00, 0x00, 0x00, 0x00, 0x00, 0x00, 
  0x07, 0x3C, 0xE0, 0x00, 0x00, 0xC0, 0xC1, 0x01, 0x00, 0x00, 0x00, 0x00, 
  0x38, 0xE0, 0x03, 0x0E, 0x00, 0x00, 0x00, 0x00, 0x00, 0x00, 0x00, 0x00, 
  0x00, 0x07, 0x7E, 0xE0, 0x00, 0x00, 0xE0, 0xC1, 0x01, 0x00, 0x00, 0x00, 
  0x00, 0x78, 0xE0, 0x03, 0x0E, 0x00, 0x00, 0x00, 0x00, 0x00, 0x00, 0x00, 
  0x00, 0x00, 0x07, 0x7E, 0xE0, 0x00, 0x00, 0xE0, 0xC0, 0x01, 0x00, 0x00, 
  0x00, 0x00, 0x70, 0xE0, 0x07, 0x0F, 0x00, 0x00, 0x00, 0x00, 0x00, 0x00, 
  0x00, 0x00, 0x00, 0x07, 0x6E, 0xE0, 0x80, 0x1F, 0xC0, 0xF1, 0x1F, 0xF0, 
  0x03, 0xCE, 0x01, 0x70, 0x70, 0x03, 0x07, 0xF8, 0x01, 0xCE, 0x81, 0x1F, 
  0x00, 0x00, 0x00, 0x00, 0x0E, 0xEF, 0xF0, 0xC0, 0x7F, 0xC0, 0xF9, 0x0F, 
  0xFC, 0x0F, 0xFE, 0x01, 0x70, 0x70, 0x07, 0x07, 0xFE, 0x07, 0xFE, 0xC1, 
  0x3F, 0x00, 0x00, 0x00, 0x00, 0x0E, 0xE6, 0x70, 0xE0, 0xF1, 0xE0, 0xC0, 
  0x01, 0x1C, 0x0E, 0xFF, 0x01, 0x70, 0x70, 0x07, 0x07, 0x0F, 0x0F, 0xFE, 
  0xF1, 0xF8, 0x00, 0x00, 0x00, 0x00, 0x0E, 0xE7, 0x70, 0x70, 0xE0, 0xC0, 
  0xC1, 0x01, 0x0E, 0x1C, 0x1E, 0x00, 0xF0, 0x70, 0x0E, 0x87, 0x07, 0x0E, 
  0x3F, 0x70, 0xE0, 0x00, 0x00, 0x00, 0x00, 0x1E, 0xE7, 0x70, 0x70, 0xC0, 
  0xE1, 0xC1, 0x03, 0x0F, 0x1C, 0x0F, 0x00, 0xE0, 0x38, 0x8E, 0x03, 0x07, 
  0x0E, 0x0E, 0x78, 0xE0, 0x00, 0x00, 0x00, 0x00, 0x8E, 0xC7, 0x71, 0x00, 
  0xE0, 0xE1, 0xC0, 0x01, 0x07, 0x3C, 0x0E, 0x00, 0xE0, 0x38, 0x8E, 0x03, 
  0x00, 0x1E, 0x0E, 0x38, 0xE0, 0x01, 0x00, 0x00, 0x00, 0x9C, 0xC3, 0x39, 
  0x00, 0xC0, 0xC1, 0xC1, 0x81, 0x07, 0x38, 0x0E, 0x00, 0xE0, 0x39, 0x9E, 
  0x03, 0x00, 0x0E, 0x0F, 0x38, 0xC0, 0x01, 0x00, 0x00, 0x00, 0x9C, 0xC3, 
  0x39, 0x80, 0xFF, 0xC1, 0xC1, 0x81, 0xFF, 0x3F, 0x0E, 0x00, 0xE0, 0x1D, 
  0x9C, 0x03, 0xFC, 0x1F, 0x0E, 0xFC, 0xFF, 0x01, 0x00, 0x00, 0x00, 0x9C, 
  0x83, 0x3B, 0xE0, 0xFF, 0xE1, 0xC0, 0x01, 0xFF, 0x3F, 0x0E, 0x00, 0xC0, 
  0x1D, 0xDC, 0x01, 0xFF, 0x0F, 0x0F, 0xF8, 0xFF, 0x01, 0x00, 0x00, 0x00, 
  0xDC, 0x81, 0x3B, 0xF0, 0xE0, 0xC1, 0xC1, 0x81, 0x07, 0x00, 0x0F, 0x00, 
  0xC0, 0x1D, 0xDC, 0x81, 0x07, 0x1E, 0x0E, 0x3C, 0x00, 0x00, 0x00, 0x00, 
  0x00, 0xF8, 0x81, 0x1F, 0x78, 0xC0, 0xE1, 0xC1, 0x03, 0x07, 0x00, 0x0E, 
  0x00, 0xC0, 0x0D, 0xF8, 0x81, 0x07, 0x0E, 0x0E, 0x38, 0x00, 0x00, 0x00, 
  0x00, 0x00, 0xF8, 0x81, 0x1F, 0x78, 0xC0, 0xC1, 0xC0, 0x01, 0x07, 0x00, 
  0x0E, 0x00, 0xC0, 0x0F, 0xF8, 0xC1, 0x03, 0x0E, 0x0E, 0x38, 0x00, 0x00, 
  0x00, 0x00, 0x00, 0xF8, 0x00, 0x1F, 0x38, 0xE0, 0xE1, 0xC1, 0x01, 0x0F, 
  0x00, 0x0F, 0x00, 0x80, 0x0F, 0xF8, 0x80, 0x03, 0x1E, 0x0F, 0x78, 0x00, 
  0x00, 0x00, 0x00, 0x00, 0xF8, 0x00, 0x1F, 0x78, 0xE0, 0xE1, 0xC1, 0x03, 
  0x0E, 0x00, 0x0E, 0x00, 0x80, 0x07, 0xF8, 0x80, 0x03, 0x0F, 0x0E, 0x70, 
  0x00, 0x00, 0x00, 0x00, 0x00, 0xF0, 0x00, 0x0F, 0x78, 0xF8, 0xC1, 0x80, 
  0x03, 0x3E, 0x1C, 0x0E, 0x00, 0x80, 0x0F, 0xF0, 0x80, 0x87, 0x1F, 0x0F, 
  0xF0, 0xE0, 0x00, 0x00, 0x00, 0x00, 0xF0, 0x00, 0x0F, 0xF0, 0xDF, 0xC1, 
  0x81, 0x1F, 0xFC, 0x1F, 0x0E, 0x00, 0x80, 0x07, 0xF0, 0x00, 0xFF, 0x0E, 
  0x0E, 0xC0, 0xFF, 0x00, 0x00, 0x00, 0x00, 0x70, 0x00, 0x0E, 0xC0, 0xC7, 
  0xE1, 0x01, 0x0F, 0xE0, 0x07, 0x0F, 0x00, 0x00, 0x07, 0x70, 0x00, 0x7E, 
  0x1E, 0x0E, 0x80, 0x3F, 0x00, 0x00, 0x00, 0x00, 0x00, 0x00, 0x00, 0x00, 
  0x00, 0x00, 0x00, 0x00, 0x00, 0x00, 0x00, 0x00, 0x00, 0x00, 0x00, 0x00, 
  0x00, 0x00, 0x00, 0x00, 0x00, 0x00, 0x00, 0x00, 0x00, 0x00, 0x00, 0x00, 
  0x00, 0x00, 0x00, 0x00, 0x00, 0x00, 0x00, 0x00, 0x00, 0x00, 0x00, 0x00, 
  0x00, 0x00, 0x00, 0x00, 0x00, 0x00, 0x00, 0x00, 0x00, 0x00, 0x00, 0x00, 
  0x00, 0x00, 0x00, 0x00, 0x00, 0x00, 0x00, 0x00, 0x00, 0x00, 0x00, 0x00, 
  0x00, 0x00, 0x00, 0x00, 0x00, 0x00, 0x00, 0x00, 0x00, 0x00, 0x00, 0x00, 
  0x00, 0x00, 0x00, 0x00, 0x00, 0x00, 0x00, 0x00, 0x00, 0x00, 0x00, 0x00, 
  0x00, 0x00, 0x00, 0x00, 0x00, 0x00, 0x00, 0x00, 0x00, 0x00, 0x00, 0x00, 
  0x00, 0x00, 0x00, 0x00, 0x00, 0x00, 0x00, 0x00, 0x00, 0x00, 0x00, 0x00, 
  0x00, 0x00, 0x00, 0x00, 0x00, 0x00, 0x00, 0x00, 0x00, 0x00, 0x00, 0x00, 
  0x00, 0x00, 0x00, 0x00, 0x00, 0x00, 0x00, 0x00, 0x00, 0x00, 0x00, 0x00, 
  0x00, 0x00, 0x00, 0x00, 0x00, 0x00, 0x00, 0x00, 0x00, 0x00, 0x00, 0x00, 
  0x00, 0x00, 0x00, 0x00, 0x00, 0x00, 0x00, 0x00, 0x00, 0x00, 0x00, 0x00, 
  0x00, 0x00, 0x00, 0x00, 0x00, 0x00, 0x00, 0x00, 0x00, 0x00, 0x00, 0x00, 
  0x00, 0x00, 0x00, 0x00, 0x00, 0x00, 0x00, 0x00, 0x00, 0x00, 0x00, 0x00, 
  0x00, 0x00, 0x00, 0x00, 0x00, 0x00, 0x00, 0x00, 0x00, 0x00, 0x00, 0x00, 
  0x00, 0x00, 0x00, 0x00, 0x00, 0x00, 0x00, 0x00, 0x00, 0x00, 0x00, 0x00, 
  0x00, 0x00, 0x00, 0x00, 0x00, 0x00, 0x00, 0x00, 0x00, 0x00, 0x00, 0x00, 
  0x00, 0x00, 0x00, 0x00, 0x00, 0x00, 0x00, 0x00, 0x00, 0x00, 0x00, 0x00, 
  0x00, 0x00, 0x00, 0x00, 0x00, 0x00, 0x00, 0x00, 0x00, 0x00, 0x00, 0x00, 
  0x00, 0x00, 0x00, 0x00, 0x00, 0x00, 0x00, 0x00, 0x00, 0x00, 0x00, 0x00, 
  0x00, 0x00, 0x00, 0x00, 0x00, 0x00, 0x00, 0x00, 0x00, 0x00, 0x00, 0x00, 
  0x00, 0x00, 0x00, 0x00, 0x00, 0x00, 0x00, 0x00, 0x00, 0x00, 0x00, 0x00, 
  0x00, 0x00, 0x00, 0x00, 0x00, 0x00, 0x00, 0x00, 0x00, 0x00, 0x00, 0x00, 
  0x00, 0x00, 0x00, 0x00, 0x00, 0x00, 0x00, 0x00, 0x00, 0x00, 0x00, 0x00, 
  0x00, 0x00, 0x00, 0x00, 0x00, 0x00, 0x00, 0x00, 0x00, 0x00, 0x00, 0x00, 
  0x00, 0x00, 0x00, 0x00, 0x00, 0x00, 0x00, 0x00, 0x00, 0x00, 0x00, 0x00, 
  0x00, 0x00, 0x00, 0x00, 0x00, 0x00, 0x00, 0x00, 0x00, 0x00, 0x00, 0x00, 
  0x00, 0x18, 0x00, 0x00, 0x00, 0x00, 0x00, 0x00, 0x00, 0x00, 0x80, 0x03, 
  0x06, 0xFC, 0xC0, 0x00, 0xFC, 0x03, 0x00, 0x00, 0x00, 0x00, 0x00, 0x00, 
  0x00, 0x00, 0x38, 0x00, 0x00, 0x00, 0x00, 0x00, 0x00, 0x00, 0x00, 0x00, 
  0x03, 0x0E, 0xFE, 0xC1, 0x00, 0xFE, 0x0F, 0x00, 0x00, 0x00, 0x00, 0x00, 
  0x00, 0x00, 0x00, 0x18, 0x00, 0x00, 0x00, 0x00, 0x00, 0x00, 0x00, 0x00, 
  0x80, 0x03, 0x06, 0x87, 0xC3, 0x00, 0x0E, 0x0E, 0x00, 0x00, 0x00, 0x00, 
  0x00, 0x00, 0x00, 0x00, 0x38, 0x00, 0x00, 0x00, 0x00, 0x00, 0x00, 0x00, 
  0x00, 0x00, 0x03, 0x0E, 0x03, 0xC7, 0x01, 0x0C, 0x1C, 0x00, 0x00, 0x00, 
  0x00, 0x00, 0x00, 0x00, 0x00, 0x18, 0x00, 0x00, 0x00, 0x00, 0x00, 0x00, 
  0x00, 0x00, 0x80, 0x03, 0x86, 0x03, 0xC6, 0x00, 0x0C, 0x1C, 0x78, 0xC0, 
  0x07, 0x7C, 0xC0, 0x07, 0x3B, 0x7C, 0xB8, 0x07, 0x7C, 0xB0, 0x03, 0x00, 
  0x00, 0x00, 0x00, 0x00, 0x03, 0x8E, 0x01, 0xC2, 0x00, 0x0E, 0x0C, 0xFE, 
  0xE0, 0x0F, 0xFE, 0xF0, 0x0F, 0x3F, 0xFF, 0xF8, 0x0F, 0xFE, 0xF0, 0x03, 
  0x00, 0x00, 0x00, 0x00, 0x80, 0x03, 0x86, 0x01, 0xC0, 0x00, 0x0C, 0x0E, 
  0xCF, 0x71, 0x1C, 0xC7, 0x71, 0x1C, 0x07, 0xC7, 0x78, 0x1C, 0xC7, 0x71, 
  0x00, 0x00, 0x00, 0x00, 0x00, 0x00, 0xFF, 0x8F, 0x01, 0xC0, 0x00, 0xFE, 
  0x07, 0x83, 0x33, 0x10, 0x83, 0x11, 0x0C, 0x83, 0xC3, 0x39, 0x1C, 0x83, 
  0x31, 0x00, 0x00, 0x00, 0x00, 0x00, 0x80, 0xFF, 0x8F, 0x01, 0xC0, 0x00, 
  0xFC, 0x07, 0x83, 0x71, 0x80, 0x83, 0x01, 0x1C, 0x83, 0x83, 0x38, 0x9C, 
  0x83, 0x31, 0x00, 0x00, 0x00, 0x00, 0x00, 0x00, 0x03, 0x8E, 0x01, 0xC0, 
  0x00, 0x0E, 0x8E, 0xFF, 0xE3, 0x83, 0xFF, 0xE1, 0x1F, 0x83, 0x01, 0x18, 
  0x18, 0xFF, 0x33, 0x00, 0x00, 0x00, 0x00, 0x00, 0x80, 0x03, 0x86, 0x01, 
  0xC6, 0x00, 0x0E, 0x1C, 0xFF, 0xC3, 0x8F, 0xFF, 0xF1, 0x1F, 0x83, 0x01, 
  0x38, 0x9C, 0xFF, 0x71, 0x00, 0x00, 0x00, 0x00, 0x00, 0x00, 0x03, 0x8E, 
  0x03, 0xC6, 0x01, 0x0C, 0x1C, 0x03, 0x00, 0x1E, 0x03, 0x38, 0x1C, 0x87, 
  0x81, 0x19, 0x18, 0x03, 0x30, 0x00, 0x00, 0x00, 0x00, 0x00, 0x80, 0x03, 
  0x86, 0x03, 0xC7, 0x00, 0x0C, 0x0C, 0x07, 0x38, 0x18, 0x03, 0x18, 0x0C, 
  0x83, 0x83, 0x19, 0x18, 0x03, 0x30, 0x00, 0x00, 0x00, 0x00, 0x00, 0x00, 
  0x03, 0x0E, 0x8F, 0xC3, 0x00, 0x0E, 0x18, 0x86, 0x71, 0x1C, 0x87, 0x38, 
  0x1E, 0x03, 0xC7, 0x38, 0x1C, 0x87, 0x31, 0x00, 0x00, 0x00, 0x00, 0x00, 
  0x80, 0x03, 0x06, 0xFE, 0xC1, 0x00, 0x0E, 0x1C, 0xFE, 0xE1, 0x0F, 0xFE, 
  0xF9, 0x1F, 0x03, 0xFF, 0x18, 0x18, 0xFE, 0x31, 0x00, 0x00, 0x00, 0x00, 
  0x00, 0x00, 0x03, 0x0E, 0xF8, 0xC0, 0x00, 0x0C, 0x18, 0xFC, 0xE0, 0x0F, 
  0x7C, 0xF0, 0x19, 0x03, 0x7C, 0x38, 0x1C, 0xFC, 0x70, 0x00, 0x00, 0x00, 
  0x00, 0x00, 0x00, 0x00, 0x00, 0x00, 0x00, 0x00, 0x00, 0x00, 0x00, 0x00, 
  0x00, 0x00, 0x00, 0x00, 0x00, 0x00, 0x00, 0x00, 0x00, 0x00, 0x00, 0x00, 
  0x00, 0x00, 0x00, 0x00, 0x00, 0x00, 0x00, 0x00, 0x00, 0x00, 0x00, 0x00, 
  0x00, 0x00, 0x00, 0x00, 0x00, 0x00, 0x00, 0x00, 0x00, 0x00, 0x00, 0x00, 
  0x00, 0x00, 0x00, 0x00, 0x00, 0x00, 0x00, 0x00, 0x00, 0x00, 0x00, 0x00, 
  0x00, 0x00, 0x00, 0x00, 0x00, 0x00, 0x00, 0x00, 0x00, 0x00, 0x00, 0x00, 
  0x00, 0x00, 0x00, 0x00, 0x00, 0x00, 0x00, 0x00, 0x00, 0x00, 0x00, 0x00, 
  0x00, 0x00, 0x00, 0x00, 0x00, 0x00, 0x00, 0x00, 0x00, 0x00, 0x00, 0x00, 
  0x00, 0x00, 0x00, 0x00, 0x00, 0x00, 0x00, 0x00, 0x00, 0x00, 0x00, 0x00, 
  0x00, 0x00, 0x00, 0x00, 0x00, 0x00, 0x00, 0x00, 0x00, 0x00, 0x00, 0x00, 
  0x00, 0x00, 0x00, 0x00, 0x00, 0x00, 0x00, 0x00, 0x00, 0x00, 0x00, 0x00, 
  0x00, 0x00, 0x00, 0x00, 0x00, 0x00, 0x00, 0x00, 0x00, 0x00, 0x00, 0x00, 
  0x00, 0x00, 0x00, 0x00, 0x00, 0x00, 0x00, 0x00, 0x00, 0x00, 0x00, 0x00, 
  0x00, 0x00, 0x00, 0x00, 0x00, 0x00, 0x00, 0x00, 0x00, 0x00, 0x00, 0x00, 
  0x00, 0x00, 0x00, 0x00, 0x00, 0x00, 0x00, 0x00, 0x00, 0x00, 0x00, 0x00, 
  0x00, 0x00, 0x00, 0x00, 0x00, 0x00, 0x00, 0x00, 0x00, 0x00, 0x00, 0x00, 
  0x00, 0x00, 0x00, 0x00, 0x00, 0x00, 0x00, 0x00, 0x00, 0x00, 0x00, 0x00, 
  0x00, 0x00, 0x00, 0x00, 0x00, 0x00, 0x00, 0x00, 0x00, 0x00, 0x00, 0x00, 
  0x00, 0x00, 0x00, 0x00, 0x00, 0x00, 0x00, 0x00, 0x00, 0x00, 0x00, 0x00, 
  0x00, 0x00, 0x00, 0x00, 0x00, 0x00, 0x00, 0x00, 0x00, 0x00, 0x00, 0x00, 
  0x00, 0x00, 0x00, 0x00, 0x00, 0x00, 0x00, 0x00, 0x00, 0x00, 0x00, 0x00, 
  0x00, 0x00, 0x00, 0x00, 0x00, 0x00, 0x00, 0x00, 0x00, 0x00, 0x00, 0x00, 
  0x00, 0x00, 0x00, 0x00, 0x00, 0x00, 0x00, 0x00, 0x00, 0x00, 0x00, 0x00, 
  0x00, 0x00, 0x00, 0x00, 0x00, 0x00, 0x00, 0x00, 0x00, 0x00, 0x00, 0x00, 
  0x00, 0x00, 0x00, 0x00, 0x00, 0x00, 0x00, 0x00, 0x00, 0x00, 0x00, 0x00, 
  0x00, 0x00, 0x00, 0x00, 0x00, 0x00, 0x00, 0x00, 0x00, 0x00, 0x00, 0x00, 
  0x00, 0x00, 0x00, 0x00, 0x00, 0x00, 0x00, 0x00, 0x00, 0x00, 0x00, 0x00, 
  0x00, 0x00, 0x00, 0x00, 0x00, 0x00, 0x00, 0x00, 0x00, 0x00, 0x00, 0x00, 
  0x00, 0x00, 0x00, 0x00, 0x00, 0x00, 0x00, 0x00, 0x00, 0x00, 0x00, 0x00, 
  0x00, 0x00, 0x00, 0x00, 0x00, 0x00, 0x00, 0x00, 0x00, 0x00, 0x00, 0x00, 
  0x00, 0x00, 0x00, 0x00, 0x00, 0x00, 0x00, 0x00, 0x00, 0x00, 0x00, 0x00, 
  0x00, 0x00, 0x00, 0x00, 0x00, 0x00, 0x00, 0x00, 0x00, 0x00, 0x00, 0x00, 
  0x00, 0x00, 0x00, 0x00, 0x00, 0x00, 0x00, 0x00, 0x00, 0x00, 0x00, 0x00, 
  0x00, 0x00, 0x00, 0x00, 0x00, 0x00, 0x00, 0x00, 0x00, 0x00, 0x00, 0x00, 
  0x00, 0x00, 0x00, 0x00, 0x00, 0x00, 0x00, 0x00, 0x00, 0x00, 0x00, 0x00, 
  0x00, 0x00, 0x00, 0x00, 0x00, 0x00, 0x00, 0x00, 0x00, 0x00, 0x00, 0x00, 
  0x00, 0x00, 0x00, 0x00, 0x00, 0x00, 0x00, 0x00, 0x00, 0x00, 0x00, 0x00, 
  0x00, 0x00, 0x00, 0x00, 0x00, 0x00, 0x00, 0x00, 0x00, 0x00, 0x00, 0x00, 
  0x00, 0x00, 0x00, 0x00, 0x00, 0x00, 0x00, 0x00, 0x00, 0x00, 0x00, 0x00, 
  0x00, 0x00, 0x00, 0x00, 0x00, 0x00, 0x00, 0x00, 0x00, 0x00, 0x00, 0x00, 
  0x00, 0x00, 0x00, 0x00, 0x00, 0x00, 0x00, 0x00, 0x00, 0x00, 0x00, 0x00, 
  0x00, 0x00, 0x00, 0x00, 0x00, 0x00, 0x00, 0x00, 0x00, 0x00, 0x00, 0x00, 
  0x00, 0x00, 0x00, 0x00, 0x00, 0x00, 0x00, 0x00, 0x00, 0x00, 0x00, 0x00, 
  0x00, 0x00, 0x00, 0x00, 0x00, 0x00, 0x00, 0x00, 0x00, 0x00, 0x00, 0x00, 
  0x00, 0x00, 0x00, 0x00, 0x00, 0x00, 0x00, 0x00, 0x00, 0x00, 0x00, 0x00, 
  0x00, 0x00, 0x00, 0x00, 0x00, 0x00, 0x00, 0x00, 0x00, 0x00, 0x00, 0x00, 
  0x00, 0x00, 0x00, 0x00, 0x00, 0x00, 0x00, 0x00, 0x00, 0x00, 0x00, 0x00, 
  0x00, 0x00, 0x00, 0x00, 0x00, 0x00, 0x00, 0x00, 0x00, 0x00, 0x00, 0x00, 
  0x00, 0x00, 0x00, 0x00, 0x00, 0x00, 0x00, 0x00, 0x00, 0x00, 0x00, 0x00, 
  0x00, 0x00, 0x00, 0x00, 0x00, 0x00, 0x00, 0x00, 0x00, 0x00, 0x00, 0x00, 
  };
