G75*
%MOIN*%
%OFA0B0*%
%FSLAX25Y25*%
%IPPOS*%
%LPD*%
%AMOC8*
5,1,8,0,0,1.08239X$1,22.5*
%
%ADD10R,0.02000X0.06300*%
%ADD11R,0.07100X0.09500*%
%ADD12R,0.03200X0.09500*%
%ADD13R,0.02965X0.02178*%
%ADD14R,0.07099X0.07887*%
%ADD15R,0.04737X0.05131*%
%ADD16OC8,0.04762*%
D10*
X0041438Y0036033D03*
X0043438Y0036033D03*
X0045438Y0036033D03*
X0047338Y0036033D03*
X0049338Y0036033D03*
X0051338Y0036033D03*
X0053238Y0036033D03*
X0055238Y0036033D03*
X0057238Y0036033D03*
X0059238Y0036033D03*
X0061138Y0036033D03*
X0063138Y0036033D03*
X0065138Y0036033D03*
X0067038Y0036033D03*
X0069038Y0036033D03*
X0071038Y0036033D03*
D11*
X0031038Y0026333D03*
X0081438Y0026333D03*
D12*
X0050638Y0047033D03*
X0045638Y0047033D03*
X0040638Y0047033D03*
X0035638Y0047033D03*
X0035638Y0073533D03*
X0040638Y0073533D03*
X0045638Y0073533D03*
X0050638Y0073533D03*
D13*
X0058975Y0064372D03*
X0058975Y0061813D03*
X0058975Y0059254D03*
X0058975Y0059254D03*
X0058975Y0056695D03*
X0076101Y0056695D03*
X0076101Y0059254D03*
X0076101Y0061813D03*
X0076101Y0064372D03*
D14*
X0071850Y0075633D03*
X0060826Y0075633D03*
D15*
X0059588Y0050480D03*
X0059588Y0043787D03*
X0066238Y0043787D03*
X0066238Y0050480D03*
X0072938Y0050480D03*
X0072938Y0043787D03*
D16*
X0054738Y0055433D03*
X0054738Y0064433D03*
X0058988Y0067683D03*
X0072238Y0081933D03*
M02*
