G75*
%MOIN*%
%OFA0B0*%
%FSLAX25Y25*%
%IPPOS*%
%LPD*%
%AMOC8*
5,1,8,0,0,1.08239X$1,22.5*
%
%ADD10C,0.00600*%
%ADD11C,0.00500*%
%ADD12C,0.00984*%
%ADD13C,0.00800*%
D10*
X0031438Y0014933D02*
X0081038Y0014933D01*
X0081038Y0020733D01*
X0081038Y0032033D02*
X0081038Y0034233D01*
X0072938Y0034233D01*
X0052437Y0050235D02*
X0052437Y0070332D01*
X0033839Y0070332D02*
X0033839Y0050235D01*
X0039538Y0035433D02*
X0038938Y0034233D01*
X0039538Y0034233D02*
X0031438Y0034233D01*
X0031438Y0032033D01*
X0031438Y0020733D02*
X0031438Y0014933D01*
D11*
X0032223Y0049203D02*
X0032225Y0049250D01*
X0032231Y0049297D01*
X0032241Y0049344D01*
X0032254Y0049389D01*
X0032272Y0049433D01*
X0032293Y0049475D01*
X0032317Y0049516D01*
X0032345Y0049554D01*
X0032376Y0049590D01*
X0032410Y0049623D01*
X0032446Y0049653D01*
X0032485Y0049680D01*
X0032526Y0049704D01*
X0032569Y0049724D01*
X0032613Y0049740D01*
X0032659Y0049753D01*
X0032705Y0049762D01*
X0032753Y0049767D01*
X0032800Y0049768D01*
X0032847Y0049765D01*
X0032894Y0049758D01*
X0032940Y0049747D01*
X0032985Y0049733D01*
X0033029Y0049714D01*
X0033070Y0049692D01*
X0033110Y0049667D01*
X0033148Y0049638D01*
X0033183Y0049607D01*
X0033216Y0049572D01*
X0033245Y0049535D01*
X0033271Y0049496D01*
X0033294Y0049454D01*
X0033313Y0049411D01*
X0033329Y0049366D01*
X0033341Y0049320D01*
X0033349Y0049274D01*
X0033353Y0049227D01*
X0033353Y0049179D01*
X0033349Y0049132D01*
X0033341Y0049086D01*
X0033329Y0049040D01*
X0033313Y0048995D01*
X0033294Y0048952D01*
X0033271Y0048910D01*
X0033245Y0048871D01*
X0033216Y0048834D01*
X0033183Y0048799D01*
X0033148Y0048768D01*
X0033110Y0048739D01*
X0033071Y0048714D01*
X0033029Y0048692D01*
X0032985Y0048673D01*
X0032940Y0048659D01*
X0032894Y0048648D01*
X0032847Y0048641D01*
X0032800Y0048638D01*
X0032753Y0048639D01*
X0032705Y0048644D01*
X0032659Y0048653D01*
X0032613Y0048666D01*
X0032569Y0048682D01*
X0032526Y0048702D01*
X0032485Y0048726D01*
X0032446Y0048753D01*
X0032410Y0048783D01*
X0032376Y0048816D01*
X0032345Y0048852D01*
X0032317Y0048890D01*
X0032293Y0048931D01*
X0032272Y0048973D01*
X0032254Y0049017D01*
X0032241Y0049062D01*
X0032231Y0049109D01*
X0032225Y0049156D01*
X0032223Y0049203D01*
X0056908Y0053447D02*
X0056908Y0067620D01*
X0078168Y0067620D01*
X0078168Y0053447D01*
X0056908Y0053447D01*
D12*
X0063044Y0064470D02*
X0063046Y0064517D01*
X0063052Y0064563D01*
X0063061Y0064609D01*
X0063075Y0064653D01*
X0063092Y0064697D01*
X0063113Y0064738D01*
X0063137Y0064778D01*
X0063164Y0064816D01*
X0063195Y0064851D01*
X0063228Y0064884D01*
X0063264Y0064914D01*
X0063303Y0064940D01*
X0063343Y0064964D01*
X0063385Y0064983D01*
X0063429Y0065000D01*
X0063474Y0065012D01*
X0063520Y0065021D01*
X0063566Y0065026D01*
X0063613Y0065027D01*
X0063659Y0065024D01*
X0063705Y0065017D01*
X0063751Y0065006D01*
X0063795Y0064992D01*
X0063838Y0064974D01*
X0063879Y0064952D01*
X0063919Y0064927D01*
X0063956Y0064899D01*
X0063991Y0064868D01*
X0064023Y0064834D01*
X0064052Y0064797D01*
X0064077Y0064759D01*
X0064100Y0064718D01*
X0064119Y0064675D01*
X0064134Y0064631D01*
X0064146Y0064586D01*
X0064154Y0064540D01*
X0064158Y0064493D01*
X0064158Y0064447D01*
X0064154Y0064400D01*
X0064146Y0064354D01*
X0064134Y0064309D01*
X0064119Y0064265D01*
X0064100Y0064222D01*
X0064077Y0064181D01*
X0064052Y0064143D01*
X0064023Y0064106D01*
X0063991Y0064072D01*
X0063956Y0064041D01*
X0063919Y0064013D01*
X0063880Y0063988D01*
X0063838Y0063966D01*
X0063795Y0063948D01*
X0063751Y0063934D01*
X0063705Y0063923D01*
X0063659Y0063916D01*
X0063613Y0063913D01*
X0063566Y0063914D01*
X0063520Y0063919D01*
X0063474Y0063928D01*
X0063429Y0063940D01*
X0063385Y0063957D01*
X0063343Y0063976D01*
X0063303Y0064000D01*
X0063264Y0064026D01*
X0063228Y0064056D01*
X0063195Y0064089D01*
X0063164Y0064124D01*
X0063137Y0064162D01*
X0063113Y0064202D01*
X0063092Y0064243D01*
X0063075Y0064287D01*
X0063061Y0064331D01*
X0063052Y0064377D01*
X0063046Y0064423D01*
X0063044Y0064470D01*
D13*
X0063482Y0053433D02*
X0068994Y0053433D01*
X0068994Y0040834D01*
X0063482Y0040834D01*
X0063482Y0053433D01*
X0062344Y0053433D02*
X0056832Y0053433D01*
X0056832Y0040834D01*
X0062344Y0040834D01*
X0062344Y0053433D01*
X0070182Y0053433D02*
X0075694Y0053433D01*
X0075694Y0040834D01*
X0070182Y0040834D01*
X0070182Y0053433D01*
M02*
