G75*
%MOIN*%
%OFA0B0*%
%FSLAX25Y25*%
%IPPOS*%
%LPD*%
%AMOC8*
5,1,8,0,0,1.08239X$1,22.5*
%
%ADD10C,0.01200*%
%ADD11OC8,0.03962*%
D10*
X0032638Y0018833D02*
X0032638Y0076933D01*
X0034438Y0076433D02*
X0034438Y0020633D01*
X0032638Y0018833D02*
X0032640Y0018735D01*
X0032646Y0018637D01*
X0032655Y0018539D01*
X0032669Y0018442D01*
X0032686Y0018345D01*
X0032707Y0018249D01*
X0032732Y0018154D01*
X0032760Y0018060D01*
X0032793Y0017968D01*
X0032828Y0017876D01*
X0032868Y0017786D01*
X0032910Y0017698D01*
X0032957Y0017611D01*
X0033006Y0017527D01*
X0033059Y0017444D01*
X0033115Y0017364D01*
X0033175Y0017285D01*
X0033237Y0017209D01*
X0033302Y0017136D01*
X0033370Y0017065D01*
X0033441Y0016997D01*
X0033514Y0016932D01*
X0033590Y0016870D01*
X0033669Y0016810D01*
X0033749Y0016754D01*
X0033832Y0016701D01*
X0033916Y0016652D01*
X0034003Y0016605D01*
X0034091Y0016563D01*
X0034181Y0016523D01*
X0034273Y0016488D01*
X0034365Y0016455D01*
X0034459Y0016427D01*
X0034554Y0016402D01*
X0034650Y0016381D01*
X0034747Y0016364D01*
X0034844Y0016350D01*
X0034942Y0016341D01*
X0035040Y0016335D01*
X0035138Y0016333D01*
X0077238Y0016333D01*
X0077336Y0016335D01*
X0077434Y0016341D01*
X0077532Y0016350D01*
X0077629Y0016364D01*
X0077726Y0016381D01*
X0077822Y0016402D01*
X0077917Y0016427D01*
X0078011Y0016455D01*
X0078103Y0016488D01*
X0078195Y0016523D01*
X0078285Y0016563D01*
X0078373Y0016605D01*
X0078460Y0016652D01*
X0078544Y0016701D01*
X0078627Y0016754D01*
X0078707Y0016810D01*
X0078786Y0016870D01*
X0078862Y0016932D01*
X0078935Y0016997D01*
X0079006Y0017065D01*
X0079074Y0017136D01*
X0079139Y0017209D01*
X0079201Y0017285D01*
X0079261Y0017364D01*
X0079317Y0017444D01*
X0079370Y0017527D01*
X0079419Y0017611D01*
X0079466Y0017698D01*
X0079508Y0017786D01*
X0079548Y0017876D01*
X0079583Y0017968D01*
X0079616Y0018060D01*
X0079644Y0018154D01*
X0079669Y0018249D01*
X0079690Y0018345D01*
X0079707Y0018442D01*
X0079721Y0018539D01*
X0079730Y0018637D01*
X0079736Y0018735D01*
X0079738Y0018833D01*
X0079738Y0076433D01*
X0079736Y0076531D01*
X0079730Y0076629D01*
X0079721Y0076727D01*
X0079707Y0076824D01*
X0079690Y0076921D01*
X0079669Y0077017D01*
X0079644Y0077112D01*
X0079616Y0077206D01*
X0079583Y0077298D01*
X0079548Y0077390D01*
X0079508Y0077480D01*
X0079466Y0077568D01*
X0079419Y0077655D01*
X0079370Y0077739D01*
X0079317Y0077822D01*
X0079261Y0077902D01*
X0079201Y0077981D01*
X0079139Y0078057D01*
X0079074Y0078130D01*
X0079006Y0078201D01*
X0078935Y0078269D01*
X0078862Y0078334D01*
X0078786Y0078396D01*
X0078707Y0078456D01*
X0078627Y0078512D01*
X0078544Y0078565D01*
X0078460Y0078614D01*
X0078373Y0078661D01*
X0078285Y0078703D01*
X0078195Y0078743D01*
X0078103Y0078778D01*
X0078011Y0078811D01*
X0077917Y0078839D01*
X0077822Y0078864D01*
X0077726Y0078885D01*
X0077629Y0078902D01*
X0077532Y0078916D01*
X0077434Y0078925D01*
X0077336Y0078931D01*
X0077238Y0078933D01*
X0036938Y0078933D01*
X0037638Y0081933D02*
X0037498Y0081931D01*
X0037358Y0081925D01*
X0037218Y0081915D01*
X0037078Y0081902D01*
X0036939Y0081884D01*
X0036800Y0081862D01*
X0036663Y0081837D01*
X0036525Y0081808D01*
X0036389Y0081775D01*
X0036254Y0081738D01*
X0036120Y0081697D01*
X0035987Y0081652D01*
X0035855Y0081604D01*
X0035725Y0081552D01*
X0035596Y0081497D01*
X0035469Y0081438D01*
X0035343Y0081375D01*
X0035219Y0081309D01*
X0035098Y0081240D01*
X0034978Y0081167D01*
X0034860Y0081090D01*
X0034745Y0081011D01*
X0034631Y0080928D01*
X0034521Y0080842D01*
X0034412Y0080753D01*
X0034306Y0080661D01*
X0034203Y0080566D01*
X0034102Y0080469D01*
X0034005Y0080368D01*
X0033910Y0080265D01*
X0033818Y0080159D01*
X0033729Y0080050D01*
X0033643Y0079940D01*
X0033560Y0079826D01*
X0033481Y0079711D01*
X0033404Y0079593D01*
X0033331Y0079473D01*
X0033262Y0079352D01*
X0033196Y0079228D01*
X0033133Y0079102D01*
X0033074Y0078975D01*
X0033019Y0078846D01*
X0032967Y0078716D01*
X0032919Y0078584D01*
X0032874Y0078451D01*
X0032833Y0078317D01*
X0032796Y0078182D01*
X0032763Y0078046D01*
X0032734Y0077908D01*
X0032709Y0077771D01*
X0032687Y0077632D01*
X0032669Y0077493D01*
X0032656Y0077353D01*
X0032646Y0077213D01*
X0032640Y0077073D01*
X0032638Y0076933D01*
X0036238Y0074633D02*
X0036238Y0022433D01*
X0034438Y0020633D02*
X0034440Y0020535D01*
X0034446Y0020437D01*
X0034455Y0020339D01*
X0034469Y0020242D01*
X0034486Y0020145D01*
X0034507Y0020049D01*
X0034532Y0019954D01*
X0034560Y0019860D01*
X0034593Y0019768D01*
X0034628Y0019676D01*
X0034668Y0019586D01*
X0034710Y0019498D01*
X0034757Y0019411D01*
X0034806Y0019327D01*
X0034859Y0019244D01*
X0034915Y0019164D01*
X0034975Y0019085D01*
X0035037Y0019009D01*
X0035102Y0018936D01*
X0035170Y0018865D01*
X0035241Y0018797D01*
X0035314Y0018732D01*
X0035390Y0018670D01*
X0035469Y0018610D01*
X0035549Y0018554D01*
X0035632Y0018501D01*
X0035716Y0018452D01*
X0035803Y0018405D01*
X0035891Y0018363D01*
X0035981Y0018323D01*
X0036073Y0018288D01*
X0036165Y0018255D01*
X0036259Y0018227D01*
X0036354Y0018202D01*
X0036450Y0018181D01*
X0036547Y0018164D01*
X0036644Y0018150D01*
X0036742Y0018141D01*
X0036840Y0018135D01*
X0036938Y0018133D01*
X0075438Y0018133D01*
X0073638Y0019933D02*
X0038738Y0019933D01*
X0040538Y0021733D02*
X0071838Y0021733D01*
X0073638Y0019933D02*
X0073736Y0019935D01*
X0073834Y0019941D01*
X0073932Y0019950D01*
X0074029Y0019964D01*
X0074126Y0019981D01*
X0074222Y0020002D01*
X0074317Y0020027D01*
X0074411Y0020055D01*
X0074503Y0020088D01*
X0074595Y0020123D01*
X0074685Y0020163D01*
X0074773Y0020205D01*
X0074860Y0020252D01*
X0074944Y0020301D01*
X0075027Y0020354D01*
X0075107Y0020410D01*
X0075186Y0020470D01*
X0075262Y0020532D01*
X0075335Y0020597D01*
X0075406Y0020665D01*
X0075474Y0020736D01*
X0075539Y0020809D01*
X0075601Y0020885D01*
X0075661Y0020964D01*
X0075717Y0021044D01*
X0075770Y0021127D01*
X0075819Y0021211D01*
X0075866Y0021298D01*
X0075908Y0021386D01*
X0075948Y0021476D01*
X0075983Y0021568D01*
X0076016Y0021660D01*
X0076044Y0021754D01*
X0076069Y0021849D01*
X0076090Y0021945D01*
X0076107Y0022042D01*
X0076121Y0022139D01*
X0076130Y0022237D01*
X0076136Y0022335D01*
X0076138Y0022433D01*
X0076138Y0072833D01*
X0077938Y0074633D02*
X0077936Y0074731D01*
X0077930Y0074829D01*
X0077921Y0074927D01*
X0077907Y0075024D01*
X0077890Y0075121D01*
X0077869Y0075217D01*
X0077844Y0075312D01*
X0077816Y0075406D01*
X0077783Y0075498D01*
X0077748Y0075590D01*
X0077708Y0075680D01*
X0077666Y0075768D01*
X0077619Y0075855D01*
X0077570Y0075939D01*
X0077517Y0076022D01*
X0077461Y0076102D01*
X0077401Y0076181D01*
X0077339Y0076257D01*
X0077274Y0076330D01*
X0077206Y0076401D01*
X0077135Y0076469D01*
X0077062Y0076534D01*
X0076986Y0076596D01*
X0076907Y0076656D01*
X0076827Y0076712D01*
X0076744Y0076765D01*
X0076660Y0076814D01*
X0076573Y0076861D01*
X0076485Y0076903D01*
X0076395Y0076943D01*
X0076303Y0076978D01*
X0076211Y0077011D01*
X0076117Y0077039D01*
X0076022Y0077064D01*
X0075926Y0077085D01*
X0075829Y0077102D01*
X0075732Y0077116D01*
X0075634Y0077125D01*
X0075536Y0077131D01*
X0075438Y0077133D01*
X0038738Y0077133D01*
X0036938Y0078933D02*
X0036840Y0078931D01*
X0036742Y0078925D01*
X0036644Y0078916D01*
X0036547Y0078902D01*
X0036450Y0078885D01*
X0036354Y0078864D01*
X0036259Y0078839D01*
X0036165Y0078811D01*
X0036073Y0078778D01*
X0035981Y0078743D01*
X0035891Y0078703D01*
X0035803Y0078661D01*
X0035716Y0078614D01*
X0035632Y0078565D01*
X0035549Y0078512D01*
X0035469Y0078456D01*
X0035390Y0078396D01*
X0035314Y0078334D01*
X0035241Y0078269D01*
X0035170Y0078201D01*
X0035102Y0078130D01*
X0035037Y0078057D01*
X0034975Y0077981D01*
X0034915Y0077902D01*
X0034859Y0077822D01*
X0034806Y0077739D01*
X0034757Y0077655D01*
X0034710Y0077568D01*
X0034668Y0077480D01*
X0034628Y0077390D01*
X0034593Y0077298D01*
X0034560Y0077206D01*
X0034532Y0077112D01*
X0034507Y0077017D01*
X0034486Y0076921D01*
X0034469Y0076824D01*
X0034455Y0076727D01*
X0034446Y0076629D01*
X0034440Y0076531D01*
X0034438Y0076433D01*
X0036238Y0074633D02*
X0036240Y0074731D01*
X0036246Y0074829D01*
X0036255Y0074927D01*
X0036269Y0075024D01*
X0036286Y0075121D01*
X0036307Y0075217D01*
X0036332Y0075312D01*
X0036360Y0075406D01*
X0036393Y0075498D01*
X0036428Y0075590D01*
X0036468Y0075680D01*
X0036510Y0075768D01*
X0036557Y0075855D01*
X0036606Y0075939D01*
X0036659Y0076022D01*
X0036715Y0076102D01*
X0036775Y0076181D01*
X0036837Y0076257D01*
X0036902Y0076330D01*
X0036970Y0076401D01*
X0037041Y0076469D01*
X0037114Y0076534D01*
X0037190Y0076596D01*
X0037269Y0076656D01*
X0037349Y0076712D01*
X0037432Y0076765D01*
X0037516Y0076814D01*
X0037603Y0076861D01*
X0037691Y0076903D01*
X0037781Y0076943D01*
X0037873Y0076978D01*
X0037965Y0077011D01*
X0038059Y0077039D01*
X0038154Y0077064D01*
X0038250Y0077085D01*
X0038347Y0077102D01*
X0038444Y0077116D01*
X0038542Y0077125D01*
X0038640Y0077131D01*
X0038738Y0077133D01*
X0040538Y0075333D02*
X0073638Y0075333D01*
X0071838Y0073533D02*
X0042338Y0073533D01*
X0040538Y0075333D02*
X0040440Y0075331D01*
X0040342Y0075325D01*
X0040244Y0075316D01*
X0040147Y0075302D01*
X0040050Y0075285D01*
X0039954Y0075264D01*
X0039859Y0075239D01*
X0039765Y0075211D01*
X0039673Y0075178D01*
X0039581Y0075143D01*
X0039491Y0075103D01*
X0039403Y0075061D01*
X0039316Y0075014D01*
X0039232Y0074965D01*
X0039149Y0074912D01*
X0039069Y0074856D01*
X0038990Y0074796D01*
X0038914Y0074734D01*
X0038841Y0074669D01*
X0038770Y0074601D01*
X0038702Y0074530D01*
X0038637Y0074457D01*
X0038575Y0074381D01*
X0038515Y0074302D01*
X0038459Y0074222D01*
X0038406Y0074139D01*
X0038357Y0074055D01*
X0038310Y0073968D01*
X0038268Y0073880D01*
X0038228Y0073790D01*
X0038193Y0073698D01*
X0038160Y0073606D01*
X0038132Y0073512D01*
X0038107Y0073417D01*
X0038086Y0073321D01*
X0038069Y0073224D01*
X0038055Y0073127D01*
X0038046Y0073029D01*
X0038040Y0072931D01*
X0038038Y0072833D01*
X0038038Y0024233D01*
X0036238Y0022433D02*
X0036240Y0022335D01*
X0036246Y0022237D01*
X0036255Y0022139D01*
X0036269Y0022042D01*
X0036286Y0021945D01*
X0036307Y0021849D01*
X0036332Y0021754D01*
X0036360Y0021660D01*
X0036393Y0021568D01*
X0036428Y0021476D01*
X0036468Y0021386D01*
X0036510Y0021298D01*
X0036557Y0021211D01*
X0036606Y0021127D01*
X0036659Y0021044D01*
X0036715Y0020964D01*
X0036775Y0020885D01*
X0036837Y0020809D01*
X0036902Y0020736D01*
X0036970Y0020665D01*
X0037041Y0020597D01*
X0037114Y0020532D01*
X0037190Y0020470D01*
X0037269Y0020410D01*
X0037349Y0020354D01*
X0037432Y0020301D01*
X0037516Y0020252D01*
X0037603Y0020205D01*
X0037691Y0020163D01*
X0037781Y0020123D01*
X0037873Y0020088D01*
X0037965Y0020055D01*
X0038059Y0020027D01*
X0038154Y0020002D01*
X0038250Y0019981D01*
X0038347Y0019964D01*
X0038444Y0019950D01*
X0038542Y0019941D01*
X0038640Y0019935D01*
X0038738Y0019933D01*
X0040538Y0021733D02*
X0040440Y0021735D01*
X0040342Y0021741D01*
X0040244Y0021750D01*
X0040147Y0021764D01*
X0040050Y0021781D01*
X0039954Y0021802D01*
X0039859Y0021827D01*
X0039765Y0021855D01*
X0039673Y0021888D01*
X0039581Y0021923D01*
X0039491Y0021963D01*
X0039403Y0022005D01*
X0039316Y0022052D01*
X0039232Y0022101D01*
X0039149Y0022154D01*
X0039069Y0022210D01*
X0038990Y0022270D01*
X0038914Y0022332D01*
X0038841Y0022397D01*
X0038770Y0022465D01*
X0038702Y0022536D01*
X0038637Y0022609D01*
X0038575Y0022685D01*
X0038515Y0022764D01*
X0038459Y0022844D01*
X0038406Y0022927D01*
X0038357Y0023011D01*
X0038310Y0023098D01*
X0038268Y0023186D01*
X0038228Y0023276D01*
X0038193Y0023368D01*
X0038160Y0023460D01*
X0038132Y0023554D01*
X0038107Y0023649D01*
X0038086Y0023745D01*
X0038069Y0023842D01*
X0038055Y0023939D01*
X0038046Y0024037D01*
X0038040Y0024135D01*
X0038038Y0024233D01*
X0039838Y0026033D02*
X0039838Y0071033D01*
X0039840Y0071131D01*
X0039846Y0071229D01*
X0039855Y0071327D01*
X0039869Y0071424D01*
X0039886Y0071521D01*
X0039907Y0071617D01*
X0039932Y0071712D01*
X0039960Y0071806D01*
X0039993Y0071898D01*
X0040028Y0071990D01*
X0040068Y0072080D01*
X0040110Y0072168D01*
X0040157Y0072255D01*
X0040206Y0072339D01*
X0040259Y0072422D01*
X0040315Y0072502D01*
X0040375Y0072581D01*
X0040437Y0072657D01*
X0040502Y0072730D01*
X0040570Y0072801D01*
X0040641Y0072869D01*
X0040714Y0072934D01*
X0040790Y0072996D01*
X0040869Y0073056D01*
X0040949Y0073112D01*
X0041032Y0073165D01*
X0041116Y0073214D01*
X0041203Y0073261D01*
X0041291Y0073303D01*
X0041381Y0073343D01*
X0041473Y0073378D01*
X0041565Y0073411D01*
X0041659Y0073439D01*
X0041754Y0073464D01*
X0041850Y0073485D01*
X0041947Y0073502D01*
X0042044Y0073516D01*
X0042142Y0073525D01*
X0042240Y0073531D01*
X0042338Y0073533D01*
X0044238Y0071433D02*
X0070038Y0071433D01*
X0071838Y0073533D02*
X0071936Y0073531D01*
X0072034Y0073525D01*
X0072132Y0073516D01*
X0072229Y0073502D01*
X0072326Y0073485D01*
X0072422Y0073464D01*
X0072517Y0073439D01*
X0072611Y0073411D01*
X0072703Y0073378D01*
X0072795Y0073343D01*
X0072885Y0073303D01*
X0072973Y0073261D01*
X0073060Y0073214D01*
X0073144Y0073165D01*
X0073227Y0073112D01*
X0073307Y0073056D01*
X0073386Y0072996D01*
X0073462Y0072934D01*
X0073535Y0072869D01*
X0073606Y0072801D01*
X0073674Y0072730D01*
X0073739Y0072657D01*
X0073801Y0072581D01*
X0073861Y0072502D01*
X0073917Y0072422D01*
X0073970Y0072339D01*
X0074019Y0072255D01*
X0074066Y0072168D01*
X0074108Y0072080D01*
X0074148Y0071990D01*
X0074183Y0071898D01*
X0074216Y0071806D01*
X0074244Y0071712D01*
X0074269Y0071617D01*
X0074290Y0071521D01*
X0074307Y0071424D01*
X0074321Y0071327D01*
X0074330Y0071229D01*
X0074336Y0071131D01*
X0074338Y0071033D01*
X0074338Y0024233D01*
X0074336Y0024135D01*
X0074330Y0024037D01*
X0074321Y0023939D01*
X0074307Y0023842D01*
X0074290Y0023745D01*
X0074269Y0023649D01*
X0074244Y0023554D01*
X0074216Y0023460D01*
X0074183Y0023368D01*
X0074148Y0023276D01*
X0074108Y0023186D01*
X0074066Y0023098D01*
X0074019Y0023011D01*
X0073970Y0022927D01*
X0073917Y0022844D01*
X0073861Y0022764D01*
X0073801Y0022685D01*
X0073739Y0022609D01*
X0073674Y0022536D01*
X0073606Y0022465D01*
X0073535Y0022397D01*
X0073462Y0022332D01*
X0073386Y0022270D01*
X0073307Y0022210D01*
X0073227Y0022154D01*
X0073144Y0022101D01*
X0073060Y0022052D01*
X0072973Y0022005D01*
X0072885Y0021963D01*
X0072795Y0021923D01*
X0072703Y0021888D01*
X0072611Y0021855D01*
X0072517Y0021827D01*
X0072422Y0021802D01*
X0072326Y0021781D01*
X0072229Y0021764D01*
X0072132Y0021750D01*
X0072034Y0021741D01*
X0071936Y0021735D01*
X0071838Y0021733D01*
X0070038Y0023533D02*
X0042338Y0023533D01*
X0042240Y0023535D01*
X0042142Y0023541D01*
X0042044Y0023550D01*
X0041947Y0023564D01*
X0041850Y0023581D01*
X0041754Y0023602D01*
X0041659Y0023627D01*
X0041565Y0023655D01*
X0041473Y0023688D01*
X0041381Y0023723D01*
X0041291Y0023763D01*
X0041203Y0023805D01*
X0041116Y0023852D01*
X0041032Y0023901D01*
X0040949Y0023954D01*
X0040869Y0024010D01*
X0040790Y0024070D01*
X0040714Y0024132D01*
X0040641Y0024197D01*
X0040570Y0024265D01*
X0040502Y0024336D01*
X0040437Y0024409D01*
X0040375Y0024485D01*
X0040315Y0024564D01*
X0040259Y0024644D01*
X0040206Y0024727D01*
X0040157Y0024811D01*
X0040110Y0024898D01*
X0040068Y0024986D01*
X0040028Y0025076D01*
X0039993Y0025168D01*
X0039960Y0025260D01*
X0039932Y0025354D01*
X0039907Y0025449D01*
X0039886Y0025545D01*
X0039869Y0025642D01*
X0039855Y0025739D01*
X0039846Y0025837D01*
X0039840Y0025935D01*
X0039838Y0026033D01*
X0041738Y0027933D02*
X0041738Y0068933D01*
X0041740Y0069031D01*
X0041746Y0069129D01*
X0041755Y0069227D01*
X0041769Y0069324D01*
X0041786Y0069421D01*
X0041807Y0069517D01*
X0041832Y0069612D01*
X0041860Y0069706D01*
X0041893Y0069798D01*
X0041928Y0069890D01*
X0041968Y0069980D01*
X0042010Y0070068D01*
X0042057Y0070155D01*
X0042106Y0070239D01*
X0042159Y0070322D01*
X0042215Y0070402D01*
X0042275Y0070481D01*
X0042337Y0070557D01*
X0042402Y0070630D01*
X0042470Y0070701D01*
X0042541Y0070769D01*
X0042614Y0070834D01*
X0042690Y0070896D01*
X0042769Y0070956D01*
X0042849Y0071012D01*
X0042932Y0071065D01*
X0043016Y0071114D01*
X0043103Y0071161D01*
X0043191Y0071203D01*
X0043281Y0071243D01*
X0043373Y0071278D01*
X0043465Y0071311D01*
X0043559Y0071339D01*
X0043654Y0071364D01*
X0043750Y0071385D01*
X0043847Y0071402D01*
X0043944Y0071416D01*
X0044042Y0071425D01*
X0044140Y0071431D01*
X0044238Y0071433D01*
X0037638Y0081933D02*
X0072238Y0081933D01*
X0077938Y0074633D02*
X0077938Y0020633D01*
X0077936Y0020535D01*
X0077930Y0020437D01*
X0077921Y0020339D01*
X0077907Y0020242D01*
X0077890Y0020145D01*
X0077869Y0020049D01*
X0077844Y0019954D01*
X0077816Y0019860D01*
X0077783Y0019768D01*
X0077748Y0019676D01*
X0077708Y0019586D01*
X0077666Y0019498D01*
X0077619Y0019411D01*
X0077570Y0019327D01*
X0077517Y0019244D01*
X0077461Y0019164D01*
X0077401Y0019085D01*
X0077339Y0019009D01*
X0077274Y0018936D01*
X0077206Y0018865D01*
X0077135Y0018797D01*
X0077062Y0018732D01*
X0076986Y0018670D01*
X0076907Y0018610D01*
X0076827Y0018554D01*
X0076744Y0018501D01*
X0076660Y0018452D01*
X0076573Y0018405D01*
X0076485Y0018363D01*
X0076395Y0018323D01*
X0076303Y0018288D01*
X0076211Y0018255D01*
X0076117Y0018227D01*
X0076022Y0018202D01*
X0075926Y0018181D01*
X0075829Y0018164D01*
X0075732Y0018150D01*
X0075634Y0018141D01*
X0075536Y0018135D01*
X0075438Y0018133D01*
X0072538Y0026033D02*
X0072538Y0068933D01*
X0070738Y0066833D02*
X0070738Y0027933D01*
X0072538Y0026033D02*
X0072536Y0025935D01*
X0072530Y0025837D01*
X0072521Y0025739D01*
X0072507Y0025642D01*
X0072490Y0025545D01*
X0072469Y0025449D01*
X0072444Y0025354D01*
X0072416Y0025260D01*
X0072383Y0025168D01*
X0072348Y0025076D01*
X0072308Y0024986D01*
X0072266Y0024898D01*
X0072219Y0024811D01*
X0072170Y0024727D01*
X0072117Y0024644D01*
X0072061Y0024564D01*
X0072001Y0024485D01*
X0071939Y0024409D01*
X0071874Y0024336D01*
X0071806Y0024265D01*
X0071735Y0024197D01*
X0071662Y0024132D01*
X0071586Y0024070D01*
X0071507Y0024010D01*
X0071427Y0023954D01*
X0071344Y0023901D01*
X0071260Y0023852D01*
X0071173Y0023805D01*
X0071085Y0023763D01*
X0070995Y0023723D01*
X0070903Y0023688D01*
X0070811Y0023655D01*
X0070717Y0023627D01*
X0070622Y0023602D01*
X0070526Y0023581D01*
X0070429Y0023564D01*
X0070332Y0023550D01*
X0070234Y0023541D01*
X0070136Y0023535D01*
X0070038Y0023533D01*
X0068238Y0025433D02*
X0044238Y0025433D01*
X0044140Y0025435D01*
X0044042Y0025441D01*
X0043944Y0025450D01*
X0043847Y0025464D01*
X0043750Y0025481D01*
X0043654Y0025502D01*
X0043559Y0025527D01*
X0043465Y0025555D01*
X0043373Y0025588D01*
X0043281Y0025623D01*
X0043191Y0025663D01*
X0043103Y0025705D01*
X0043016Y0025752D01*
X0042932Y0025801D01*
X0042849Y0025854D01*
X0042769Y0025910D01*
X0042690Y0025970D01*
X0042614Y0026032D01*
X0042541Y0026097D01*
X0042470Y0026165D01*
X0042402Y0026236D01*
X0042337Y0026309D01*
X0042275Y0026385D01*
X0042215Y0026464D01*
X0042159Y0026544D01*
X0042106Y0026627D01*
X0042057Y0026711D01*
X0042010Y0026798D01*
X0041968Y0026886D01*
X0041928Y0026976D01*
X0041893Y0027068D01*
X0041860Y0027160D01*
X0041832Y0027254D01*
X0041807Y0027349D01*
X0041786Y0027445D01*
X0041769Y0027542D01*
X0041755Y0027639D01*
X0041746Y0027737D01*
X0041740Y0027835D01*
X0041738Y0027933D01*
X0068238Y0025433D02*
X0068336Y0025435D01*
X0068434Y0025441D01*
X0068532Y0025450D01*
X0068629Y0025464D01*
X0068726Y0025481D01*
X0068822Y0025502D01*
X0068917Y0025527D01*
X0069011Y0025555D01*
X0069103Y0025588D01*
X0069195Y0025623D01*
X0069285Y0025663D01*
X0069373Y0025705D01*
X0069460Y0025752D01*
X0069544Y0025801D01*
X0069627Y0025854D01*
X0069707Y0025910D01*
X0069786Y0025970D01*
X0069862Y0026032D01*
X0069935Y0026097D01*
X0070006Y0026165D01*
X0070074Y0026236D01*
X0070139Y0026309D01*
X0070201Y0026385D01*
X0070261Y0026464D01*
X0070317Y0026544D01*
X0070370Y0026627D01*
X0070419Y0026711D01*
X0070466Y0026798D01*
X0070508Y0026886D01*
X0070548Y0026976D01*
X0070583Y0027068D01*
X0070616Y0027160D01*
X0070644Y0027254D01*
X0070669Y0027349D01*
X0070690Y0027445D01*
X0070707Y0027542D01*
X0070721Y0027639D01*
X0070730Y0027737D01*
X0070736Y0027835D01*
X0070738Y0027933D01*
X0054738Y0055433D02*
X0054738Y0064433D01*
X0058988Y0067683D02*
X0060638Y0069333D01*
X0068238Y0069333D01*
X0070038Y0071433D02*
X0070136Y0071431D01*
X0070234Y0071425D01*
X0070332Y0071416D01*
X0070429Y0071402D01*
X0070526Y0071385D01*
X0070622Y0071364D01*
X0070717Y0071339D01*
X0070811Y0071311D01*
X0070903Y0071278D01*
X0070995Y0071243D01*
X0071085Y0071203D01*
X0071173Y0071161D01*
X0071260Y0071114D01*
X0071344Y0071065D01*
X0071427Y0071012D01*
X0071507Y0070956D01*
X0071586Y0070896D01*
X0071662Y0070834D01*
X0071735Y0070769D01*
X0071806Y0070701D01*
X0071874Y0070630D01*
X0071939Y0070557D01*
X0072001Y0070481D01*
X0072061Y0070402D01*
X0072117Y0070322D01*
X0072170Y0070239D01*
X0072219Y0070155D01*
X0072266Y0070068D01*
X0072308Y0069980D01*
X0072348Y0069890D01*
X0072383Y0069798D01*
X0072416Y0069706D01*
X0072444Y0069612D01*
X0072469Y0069517D01*
X0072490Y0069421D01*
X0072507Y0069324D01*
X0072521Y0069227D01*
X0072530Y0069129D01*
X0072536Y0069031D01*
X0072538Y0068933D01*
X0076138Y0072833D02*
X0076136Y0072931D01*
X0076130Y0073029D01*
X0076121Y0073127D01*
X0076107Y0073224D01*
X0076090Y0073321D01*
X0076069Y0073417D01*
X0076044Y0073512D01*
X0076016Y0073606D01*
X0075983Y0073698D01*
X0075948Y0073790D01*
X0075908Y0073880D01*
X0075866Y0073968D01*
X0075819Y0074055D01*
X0075770Y0074139D01*
X0075717Y0074222D01*
X0075661Y0074302D01*
X0075601Y0074381D01*
X0075539Y0074457D01*
X0075474Y0074530D01*
X0075406Y0074601D01*
X0075335Y0074669D01*
X0075262Y0074734D01*
X0075186Y0074796D01*
X0075107Y0074856D01*
X0075027Y0074912D01*
X0074944Y0074965D01*
X0074860Y0075014D01*
X0074773Y0075061D01*
X0074685Y0075103D01*
X0074595Y0075143D01*
X0074503Y0075178D01*
X0074411Y0075211D01*
X0074317Y0075239D01*
X0074222Y0075264D01*
X0074126Y0075285D01*
X0074029Y0075302D01*
X0073932Y0075316D01*
X0073834Y0075325D01*
X0073736Y0075331D01*
X0073638Y0075333D01*
X0068238Y0069333D02*
X0068336Y0069331D01*
X0068434Y0069325D01*
X0068532Y0069316D01*
X0068629Y0069302D01*
X0068726Y0069285D01*
X0068822Y0069264D01*
X0068917Y0069239D01*
X0069011Y0069211D01*
X0069103Y0069178D01*
X0069195Y0069143D01*
X0069285Y0069103D01*
X0069373Y0069061D01*
X0069460Y0069014D01*
X0069544Y0068965D01*
X0069627Y0068912D01*
X0069707Y0068856D01*
X0069786Y0068796D01*
X0069862Y0068734D01*
X0069935Y0068669D01*
X0070006Y0068601D01*
X0070074Y0068530D01*
X0070139Y0068457D01*
X0070201Y0068381D01*
X0070261Y0068302D01*
X0070317Y0068222D01*
X0070370Y0068139D01*
X0070419Y0068055D01*
X0070466Y0067968D01*
X0070508Y0067880D01*
X0070548Y0067790D01*
X0070583Y0067698D01*
X0070616Y0067606D01*
X0070644Y0067512D01*
X0070669Y0067417D01*
X0070690Y0067321D01*
X0070707Y0067224D01*
X0070721Y0067127D01*
X0070730Y0067029D01*
X0070736Y0066931D01*
X0070738Y0066833D01*
D11*
X0058988Y0067683D03*
X0054738Y0064433D03*
X0054738Y0055433D03*
X0072238Y0081933D03*
M02*
